<?xml version="1.0" standalone="no"?>
<!DOCTYPE svg PUBLIC "-//W3C//DTD SVG 20010904//EN"
 "http://www.w3.org/TR/2001/REC-SVG-20010904/DTD/svg10.dtd">
<svg version="1.0" xmlns="http://www.w3.org/2000/svg"
 width="1103.000000pt" height="1103.000000pt" viewBox="0 0 1103.000000 1103.000000"
 preserveAspectRatio="xMidYMid meet">
<metadata>
Created by potrace 1.11, written by Peter Selinger 2001-2013
</metadata>
<g transform="translate(0.000000,1103.000000) scale(0.100000,-0.100000)"
fill="#000000" stroke="none">
<path d="M5100 10609 c-1018 -73 -1987 -400 -2813 -951 -134 -90 -383 -275
-411 -307 -19 -21 -19 -21 3 -21 12 0 47 -12 78 -26 30 -15 67 -27 82 -29 15
-1 33 -5 40 -9 10 -6 39 -10 149 -18 6 -1 12 -6 12 -11 0 -6 9 -2 21 9 16 14
22 15 28 5 6 -9 11 -10 15 -2 5 8 13 8 26 1 12 -7 26 -7 42 0 21 9 20 10 -7 5
-23 -5 -27 -4 -18 6 17 17 106 24 101 7 -3 -7 -11 -13 -19 -14 -16 -1 -46 -11
-70 -24 -9 -5 -26 -6 -38 -3 -14 4 -26 -1 -35 -12 -7 -10 -16 -14 -19 -9 -3 6
-32 7 -69 3 -35 -3 -68 -2 -74 3 -7 5 -16 8 -20 6 -23 -5 -139 16 -173 33 -21
10 -58 25 -82 33 -42 15 -45 14 -69 -7 -14 -13 -50 -45 -80 -71 -71 -63 -420
-409 -420 -416 0 -13 93 -50 124 -50 49 0 96 -11 90 -21 -3 -5 -21 -9 -40 -9
-19 0 -34 -5 -34 -11 0 -7 -7 -8 -17 -4 -10 4 -58 6 -108 6 l-90 -1 -38 -42
c-21 -23 -47 -63 -59 -90 -18 -41 -23 -46 -36 -36 -11 9 -9 2 5 -27 47 -93 65
-175 64 -281 -1 -63 -6 -101 -25 -191 -10 -48 -75 -152 -128 -204 -20 -21 -34
-40 -30 -45 4 -4 2 -4 -5 -1 -14 9 -43 -2 -43 -15 0 -6 12 -24 26 -41 33 -40
15 -47 -30 -12 l-35 26 -73 -21 c-98 -29 -111 -31 -201 -31 l-77 0 -34 -67
c-49 -98 -151 -336 -191 -448 l-36 -97 27 -71 c15 -39 33 -81 41 -94 l14 -22
39 45 c22 26 40 50 40 54 0 13 41 51 55 51 8 0 14 -3 14 -7 -3 -21 4 -35 34
-62 17 -17 34 -31 37 -31 3 0 16 18 30 40 24 38 40 51 40 30 0 -21 -55 -120
-66 -120 -7 0 -30 18 -52 40 -21 22 -41 40 -44 40 -15 0 -108 -125 -108 -146
0 -13 -4 -24 -10 -24 -11 0 -72 109 -91 163 -7 20 -16 37 -19 37 -10 0 -32
-79 -25 -89 3 -5 1 -11 -5 -13 -27 -9 -125 -431 -164 -708 -34 -238 -46 -416
-46 -671 0 -532 79 -1017 249 -1524 66 -198 85 -240 107 -240 22 -1 43 30 44
65 l0 25 18 -28 c10 -15 21 -24 24 -21 4 3 12 -4 18 -16 9 -17 14 -19 26 -9 8
6 16 10 17 8 2 -2 13 -17 25 -33 l22 -29 1 44 1 44 31 -65 32 -65 3 38 c2 20
7 35 13 32 5 -4 9 6 9 20 0 14 4 24 10 20 5 -3 16 7 23 22 l15 27 18 -39 c17
-39 18 -40 22 -12 2 15 7 27 12 27 4 0 6 -9 3 -19 -8 -32 30 -32 44 0 9 22 17
26 42 24 27 -2 31 1 32 24 l1 26 11 -27 c16 -42 34 -34 27 12 -1 8 2 11 6 7 4
-4 14 3 22 15 l13 23 -5 -23 c-3 -17 1 -25 17 -31 12 -5 25 -7 29 -4 5 2 8 -1
8 -7 0 -7 6 -10 13 -7 6 2 17 -5 24 -17 11 -19 12 -18 13 15 0 48 10 55 32 22
10 -17 18 -22 18 -13 0 12 2 12 9 2 6 -10 11 -5 20 16 16 38 45 36 49 -3 3
-21 0 -26 -11 -22 -10 4 -17 -3 -22 -20 -6 -27 2 -44 13 -27 13 19 40 23 46 8
8 -22 23 -9 31 26 4 17 13 30 20 30 7 0 16 8 20 18 6 16 7 16 16 0 5 -10 18
-15 29 -13 16 3 20 -2 20 -21 0 -13 5 -24 11 -24 7 0 9 10 4 27 -5 23 -4 26 6
16 18 -18 27 -16 34 7 3 11 13 20 21 20 8 0 14 7 14 16 0 8 4 13 10 9 5 -3 16
7 24 22 l15 28 2 -25 c1 -14 1 -31 0 -38 -1 -7 5 -22 14 -34 8 -13 15 -17 15
-10 0 7 5 10 10 7 6 -3 19 14 30 39 21 50 31 59 27 24 -1 -13 4 -23 11 -23 8
0 20 -9 28 -20 12 -16 16 -17 23 -6 6 8 14 10 22 5 18 -11 59 -13 59 -3 0 4 9
6 20 4 15 -3 24 5 35 31 8 20 19 33 25 29 5 -3 10 -2 10 3 0 14 29 10 34 -5 3
-8 10 -11 16 -8 5 3 10 -1 10 -10 0 -9 5 -25 10 -35 10 -19 11 -19 29 -1 11
11 25 29 31 41 11 20 12 20 24 4 12 -16 13 -16 19 0 9 24 27 10 27 -20 0 -17
5 -24 20 -24 20 0 25 14 21 54 -1 16 1 17 14 6 8 -7 15 -9 15 -4 0 5 6 2 13
-7 15 -19 67 -20 67 -2 0 23 17 14 38 -18 l20 -32 12 23 c10 19 9 27 -10 52
-12 16 -19 32 -17 35 3 3 18 -14 33 -36 31 -48 48 -53 39 -12 -7 35 10 50 25
21 12 -23 30 -27 30 -6 0 8 10 13 23 12 18 -1 22 4 22 26 0 35 19 41 23 9 5
-35 30 -69 49 -67 9 2 22 18 28 36 6 19 19 34 29 36 18 2 20 -1 30 -49 9 -37
22 -34 36 8 6 19 15 33 20 30 5 -3 12 5 16 17 6 20 7 21 20 4 7 -10 10 -24 8
-31 -3 -7 -1 -16 5 -19 6 -4 10 6 10 26 -1 18 4 47 11 63 10 27 13 28 21 12 6
-9 14 -15 19 -12 5 3 11 1 15 -5 10 -16 25 -12 25 8 1 13 6 10 25 -13 14 -16
25 -25 25 -18 0 6 8 10 17 9 20 -3 63 40 63 62 0 12 3 12 20 -3 18 -16 20 -16
20 -2 0 10 4 17 9 17 4 0 7 -20 6 -45 -2 -63 10 -65 30 -5 l17 50 18 -23 c10
-13 18 -30 17 -39 -4 -38 19 -17 32 28 l14 49 11 -30 10 -30 6 29 c6 33 40 46
40 16 0 -10 4 -21 9 -24 14 -9 31 51 24 84 -3 18 -1 30 5 30 9 0 10 -80 1
-105 -2 -5 -1 -10 2 -10 4 0 17 -9 29 -20 l23 -20 -6 30 c-7 36 2 53 25 50 9
-2 18 6 22 18 5 21 6 21 19 2 14 -18 15 -18 22 4 6 21 8 21 19 5 12 -16 14
-16 23 1 7 12 13 14 17 6 11 -18 26 -13 26 9 0 34 19 22 26 -15 3 -20 9 -33
12 -30 3 3 14 -2 24 -12 17 -15 18 -15 18 4 0 15 6 20 23 19 18 -1 22 4 19 27
-1 15 2 27 8 27 5 0 10 8 10 18 0 14 2 14 9 3 5 -8 6 -24 1 -37 -10 -27 -5
-33 20 -27 13 3 22 17 26 39 5 27 11 34 30 34 17 0 24 6 24 19 0 27 15 34 30
16 10 -12 9 -15 -4 -15 -9 0 -16 -6 -16 -14 0 -19 20 -32 20 -14 1 8 6 6 15
-6 14 -19 15 -18 24 5 8 21 10 22 16 7 4 -10 11 -18 15 -18 13 0 20 43 9 56
-6 8 -7 14 0 18 13 8 24 -29 16 -53 -3 -11 -1 -22 4 -25 6 -4 16 12 22 35 12
39 13 40 23 18 9 -21 11 -19 14 23 4 61 27 65 37 8 7 -41 25 -65 25 -33 0 14
2 15 9 4 6 -10 11 -5 16 18 7 32 7 32 21 12 8 -11 13 -25 12 -32 -2 -6 3 -14
11 -17 14 -5 12 11 -5 70 -4 13 -1 16 11 12 10 -4 13 -13 9 -26 -5 -18 10 -48
26 -48 4 0 11 11 14 25 4 14 11 23 16 20 6 -3 10 -2 10 4 0 5 9 8 20 6 11 -2
20 2 21 8 0 7 5 1 12 -13 11 -24 11 -23 15 18 2 23 6 42 10 43 8 1 23 4 62 14
64 17 73 18 66 7 -7 -11 13 -52 25 -52 4 0 10 15 13 33 6 29 8 30 20 15 9 -12
16 -14 23 -7 8 8 13 2 18 -21 8 -39 24 -23 26 25 0 26 2 27 9 10 8 -18 9 -18
10 5 l2 25 7 -25 8 -25 4 24 c5 28 29 41 29 15 0 -9 3 -14 7 -11 3 4 12 2 20
-4 10 -9 13 -6 13 14 0 19 7 28 29 35 25 9 32 7 48 -10 18 -20 18 -20 28 4 10
23 21 29 60 32 14 1 24 -8 32 -29 l11 -30 1 27 c1 25 30 46 54 40 4 -1 7 2 7
7 0 5 9 11 20 14 11 3 18 1 15 -3 -3 -5 -1 -11 4 -15 5 -3 13 1 18 8 4 8 18
17 29 21 19 6 23 2 29 -31 6 -32 8 -35 17 -19 5 10 8 29 5 42 -7 40 9 27 24
-18 l13 -43 6 49 c3 27 11 51 18 54 6 2 12 -1 12 -7 0 -16 15 -14 67 11 26 12
61 21 80 21 18 -1 33 3 33 8 0 17 39 9 53 -11 13 -19 14 -18 27 14 10 26 19
34 39 34 40 0 55 -17 36 -39 -15 -16 -15 -18 2 -29 14 -9 14 -10 2 -6 -19 5
-32 -36 -22 -73 4 -17 2 -20 -11 -15 -13 5 -16 -2 -16 -39 0 -30 -9 -63 -25
-93 -14 -26 -23 -55 -20 -65 3 -9 1 -20 -5 -24 -6 -4 -9 -13 -6 -21 3 -8 -3
-30 -14 -49 -11 -19 -17 -35 -15 -35 3 0 -2 -15 -11 -33 -18 -34 -24 -62 -25
-112 0 -28 -1 -29 -14 -11 -17 22 -15 25 -19 -34 -1 -8 -7 -25 -14 -37 -6 -12
-12 -26 -12 -32 0 -5 -5 -22 -12 -38 -6 -15 -10 -32 -9 -37 1 -5 -5 -16 -12
-25 -13 -14 -34 -96 -26 -96 2 0 -4 -11 -14 -25 -9 -13 -17 -32 -17 -42 0 -10
-4 -18 -10 -18 -5 0 -10 -7 -10 -16 0 -8 -4 -13 -9 -10 -9 6 -21 -26 -21 -60
0 -12 -7 -27 -15 -34 -8 -7 -15 -27 -15 -45 0 -20 -6 -35 -15 -39 -8 -3 -15
-15 -15 -27 0 -11 -9 -34 -21 -50 -12 -17 -23 -46 -24 -65 -2 -20 -11 -41 -21
-48 -9 -7 -18 -24 -20 -37 -1 -13 -3 -28 -3 -32 -1 -5 -5 -5 -11 -2 -14 9 -12
-15 4 -44 8 -14 12 -31 9 -38 -3 -7 -1 -13 5 -13 6 0 29 -18 51 -40 22 -22 45
-40 51 -40 6 0 18 -7 27 -16 9 -8 22 -13 29 -10 9 3 14 -2 14 -14 0 -11 6 -21
13 -21 6 -1 19 -2 27 -3 8 0 15 -8 15 -16 0 -9 11 -16 28 -18 15 -2 27 -7 27
-12 0 -4 8 -6 18 -4 9 3 30 -7 46 -21 16 -14 37 -25 47 -25 27 0 50 -11 43
-21 -3 -5 4 -9 15 -9 13 0 22 -8 25 -23 3 -12 10 -50 17 -85 6 -34 16 -65 21
-68 4 -3 5 -10 2 -16 -4 -6 -1 -14 6 -18 7 -5 14 -21 16 -37 5 -50 16 -98 26
-110 7 -9 7 -13 0 -13 -6 0 -4 -12 5 -30 15 -31 22 -61 28 -115 1 -16 4 -34 5
-40 1 -5 2 -13 1 -18 0 -4 3 -7 8 -7 6 0 9 -8 9 -18 -1 -33 12 -147 20 -177 5
-16 8 -38 6 -48 -1 -9 2 -17 6 -17 5 0 10 -8 12 -17 7 -30 -51 -72 -105 -77
-5 -1 -15 -9 -22 -20 -8 -10 -21 -16 -29 -13 -9 4 -21 -2 -30 -15 -9 -12 -21
-18 -30 -15 -10 4 -17 -2 -22 -15 -5 -16 -8 -18 -15 -7 -7 11 -10 9 -15 -8 -3
-12 -12 -19 -19 -17 -7 3 -16 -4 -20 -15 -3 -12 -12 -21 -18 -21 -7 0 -13 -12
-13 -27 -1 -16 -7 -42 -14 -59 -7 -17 -10 -41 -7 -55 7 -26 49 -56 88 -63 13
-3 24 -5 24 -6 0 -2 21 -7 50 -12 11 -2 25 -6 30 -9 6 -3 26 -5 45 -3 19 1 40
-1 45 -5 13 -8 176 -11 195 -4 17 7 65 14 98 15 12 0 22 4 22 10 0 5 3 7 8 5
4 -3 18 0 32 6 37 15 54 17 60 7 16 -26 90 43 90 84 0 8 5 16 10 18 6 2 12 17
14 33 2 17 5 31 6 33 1 1 3 10 4 20 1 9 5 23 9 29 5 7 6 13 3 13 -3 0 -1 12 5
28 6 15 13 45 14 67 2 22 6 50 9 63 25 95 28 122 13 122 -7 0 -8 3 -2 8 13 9
18 29 19 80 0 23 4 42 9 42 4 0 5 5 2 10 -3 6 -1 10 6 10 8 0 9 3 0 13 -6 8
-8 17 -4 20 10 11 11 60 1 80 -5 9 -5 17 -1 17 4 0 8 15 9 33 3 79 10 137 16
137 4 0 4 10 -1 23 -4 12 -6 31 -4 42 2 11 5 25 5 32 1 12 58 9 87 -6 9 -4 37
-7 64 -5 26 1 47 -3 47 -8 0 -6 7 -5 15 2 12 10 15 9 15 -4 0 -10 5 -14 10
-11 10 6 14 -13 11 -47 -1 -9 3 -19 8 -22 6 -4 8 -13 5 -20 -3 -8 0 -17 5 -21
6 -3 9 -11 5 -16 -3 -5 -1 -16 5 -23 6 -7 8 -21 5 -31 -4 -9 -2 -20 4 -24 6
-3 14 -22 17 -41 3 -19 10 -39 15 -44 5 -5 6 -15 3 -22 -3 -8 0 -14 6 -14 6 0
8 -6 5 -13 -3 -8 2 -20 10 -27 9 -7 13 -16 10 -21 -3 -5 2 -16 10 -25 9 -8 16
-29 16 -45 0 -16 5 -29 11 -29 5 0 8 -4 5 -8 -3 -5 3 -18 13 -28 9 -11 16 -24
14 -31 -2 -6 3 -18 12 -27 9 -9 14 -16 11 -16 -7 0 15 -62 27 -78 6 -8 12 -24
14 -35 2 -12 10 -27 18 -33 8 -6 15 -16 15 -23 0 -6 5 -11 11 -11 5 0 8 -4 4
-9 -3 -5 1 -16 9 -24 8 -8 12 -18 8 -22 -4 -3 1 -13 12 -20 10 -8 16 -21 13
-29 -4 -9 1 -17 14 -21 10 -4 19 -15 19 -26 0 -11 7 -19 16 -19 9 0 12 -5 8
-11 -5 -8 1 -10 18 -7 17 3 29 -1 37 -14 11 -18 12 -18 33 2 15 13 24 16 29 9
5 -8 8 -8 13 0 4 6 20 11 36 11 16 0 32 5 35 10 4 6 11 8 16 4 5 -3 16 -1 23
6 11 8 24 5 57 -13 42 -24 62 -47 40 -47 -6 0 -11 -5 -11 -11 0 -5 5 -7 10 -4
6 3 10 2 10 -4 0 -5 -8 -12 -17 -14 -10 -3 -4 -5 13 -6 40 -1 43 -5 35 -44 -6
-27 -2 -35 20 -54 15 -13 34 -23 43 -23 9 0 16 -4 16 -8 0 -11 100 -66 100
-55 0 4 6 1 13 -7 7 -8 21 -17 32 -18 11 -2 39 -15 63 -28 24 -13 47 -22 52
-19 5 3 11 1 15 -5 3 -5 17 -10 31 -10 13 0 24 -4 24 -8 0 -4 8 -8 18 -9 9 -1
33 -4 52 -8 19 -4 41 -7 48 -7 9 -1 11 -8 7 -22 -15 -45 -11 -79 10 -82 56
-10 74 -10 95 1 13 7 31 10 42 7 10 -2 18 1 18 7 0 6 11 11 25 11 14 0 25 5
25 11 0 5 5 7 10 4 6 -3 10 0 10 7 0 10 2 10 9 -1 8 -12 12 -12 25 1 9 9 24
14 36 11 11 -3 26 0 33 6 8 6 17 8 20 4 4 -3 7 -2 7 3 0 5 18 9 40 9 22 0 40
3 40 7 0 5 6 8 14 8 8 0 16 3 19 8 2 4 2 1 1 -5 -2 -7 3 -13 11 -13 8 0 15 3
15 8 0 4 10 8 23 8 12 1 38 4 57 8 19 4 64 9 100 12 63 5 110 10 120 14 3 1
13 1 23 0 60 -6 556 327 842 565 44 36 121 104 171 150 84 77 92 88 96 127 3
24 1 48 -4 55 -6 7 -1 17 14 27 21 15 21 16 2 16 -14 0 -20 7 -22 25 -1 16 3
25 13 25 8 0 15 5 15 10 0 6 -5 10 -10 10 -6 0 -10 6 -9 12 1 7 -2 21 -6 32
-5 11 -3 26 4 37 8 14 8 19 0 19 -8 0 -8 5 1 15 10 12 10 18 0 30 -10 12 -10
15 4 15 9 0 16 5 16 10 0 6 -4 10 -10 10 -15 0 -12 30 3 30 8 1 7 4 -3 13 -9
7 -14 25 -12 46 2 20 -2 37 -10 42 -7 5 -8 9 -2 9 6 0 10 15 9 33 -2 49 5 67
29 68 20 1 20 2 1 6 -24 6 -44 23 -27 23 7 0 10 12 8 30 -3 27 0 30 23 30 24
1 25 1 6 12 -37 22 -43 32 -34 57 6 15 6 28 -1 36 -8 10 -6 16 7 24 14 8 16
12 6 22 -19 20 -16 76 4 83 14 6 15 9 4 15 -9 6 -10 11 -3 15 15 9 3 36 -15
36 -12 0 -12 2 1 16 18 17 12 39 -7 27 -7 -3 -3 4 8 17 14 16 16 24 8 27 -21
7 -15 21 15 31 25 10 25 10 4 11 -23 1 -23 3 -19 80 2 43 7 82 10 87 3 5 4 21
2 36 -2 16 0 28 4 28 4 0 8 17 9 38 0 20 1 48 1 61 1 14 7 28 13 33 10 6 10 8
1 8 -9 0 -10 7 -5 23 5 12 8 29 7 37 -1 8 1 19 3 24 7 13 14 63 16 109 0 20 6
37 12 37 6 0 17 7 24 15 7 8 21 15 32 15 12 0 17 4 12 12 -4 7 -3 8 4 4 12 -7
52 10 63 27 4 5 18 10 33 10 19 0 26 5 26 18 0 11 5 19 12 19 26 0 -5 15 -35
16 -50 3 -53 4 -38 13 10 6 4 11 -20 16 -33 8 -33 8 -10 17 16 6 27 5 31 -2 4
-7 20 -10 35 -8 33 4 51 47 53 129 5 163 8 195 17 201 6 5 4 8 -5 9 -10 0 -8
3 5 9 18 8 18 9 -5 9 -18 1 -21 4 -11 10 7 5 10 14 7 20 -4 6 -2 11 4 11 6 0
9 4 6 8 -9 15 -17 65 -22 137 -2 39 -6 76 -9 83 -2 6 1 12 8 12 12 0 47 34 47
45 0 3 -15 5 -34 5 -19 0 -37 4 -40 9 -3 5 -24 4 -48 -1 -24 -5 -76 -11 -117
-14 -41 -3 -81 -9 -89 -13 -9 -5 -27 -5 -41 -1 -14 4 -60 8 -103 9 -59 1 -85
-3 -115 -18 -21 -11 -54 -23 -73 -25 -19 -2 -46 -9 -60 -14 -19 -7 -29 -6 -40
6 -13 14 -15 14 -20 -5 -4 -19 -7 -20 -23 -8 -12 8 -14 15 -8 20 6 3 11 13 11
21 0 8 -4 13 -9 9 -5 -3 -17 2 -26 12 -13 13 -19 13 -25 4 -6 -10 -9 -10 -15
-1 -4 6 -14 9 -22 6 -8 -3 -30 1 -50 9 -19 8 -39 12 -45 9 -5 -3 -17 1 -26 9
-10 9 -40 19 -67 22 -28 4 -63 13 -78 20 -15 8 -35 11 -42 8 -8 -3 -18 2 -21
12 -4 9 -13 14 -20 11 -8 -3 -14 -1 -14 5 0 6 -5 7 -10 4 -6 -4 -22 1 -35 9
-14 9 -25 14 -25 11 0 -4 -12 2 -27 13 -16 10 -34 17 -40 15 -7 -3 -13 -1 -13
4 0 5 -9 9 -20 10 -11 1 -27 9 -36 17 -8 9 -26 19 -40 22 -13 3 -24 11 -24 16
0 6 -7 8 -15 4 -10 -4 -15 1 -15 16 0 12 -3 18 -6 15 -10 -10 -64 25 -64 42 0
8 -3 12 -6 8 -7 -6 -74 27 -77 38 -1 4 19 8 46 10 26 1 54 8 61 14 9 7 17 8
20 3 3 -6 21 -4 44 3 21 8 58 15 81 18 24 2 46 8 49 13 4 5 18 10 32 12 41 4
54 8 76 20 12 6 24 9 27 5 4 -3 9 1 13 10 4 10 15 14 35 12 16 -2 29 0 29 5 0
5 8 11 18 14 31 10 42 40 27 70 -8 14 -13 34 -13 43 1 10 -2 28 -6 41 -7 20
-4 22 26 22 18 0 40 5 48 10 12 8 10 10 -10 10 -14 0 -35 3 -48 6 -21 6 -21 7
-5 19 15 11 15 15 3 30 -12 14 -12 18 1 26 8 5 24 9 37 9 13 0 20 4 17 10 -3
6 -18 10 -32 10 -20 0 -24 3 -18 18 5 9 9 28 10 42 1 18 8 26 25 28 18 3 20 6
9 13 -10 6 -10 9 -2 9 7 0 19 -15 27 -32 14 -33 14 -32 15 40 1 44 5 72 12 72
6 0 3 7 -5 16 -9 8 -16 19 -16 24 0 10 25 20 53 20 18 0 19 2 7 10 -8 5 -27
10 -42 10 -26 0 -28 3 -28 40 0 25 5 40 13 40 8 0 7 4 -3 10 -12 8 -10 10 10
10 14 0 32 5 40 10 12 8 9 10 -12 10 -16 0 -28 5 -28 10 0 10 28 13 87 10 18
-1 42 1 53 5 30 10 7 35 -34 36 -28 1 -27 2 14 13 l45 13 -60 7 c-93 11 -116
17 -112 29 2 8 31 11 83 10 54 -2 73 0 59 6 l-20 10 20 1 c22 2 15 5 -27 14
-19 4 -26 11 -22 21 4 10 0 15 -12 16 -18 0 -17 1 1 9 18 8 18 9 -5 9 -14 1
-32 6 -40 11 -12 8 -11 10 7 10 12 0 30 3 40 8 13 5 6 8 -27 12 -54 6 -55 20
-3 36 35 11 36 12 10 13 -16 1 -35 7 -43 15 -12 12 -7 16 37 25 27 6 58 11 67
12 14 0 13 2 -3 9 l-20 9 20 1 c30 3 -31 17 -80 19 -30 1 -36 4 -25 11 8 5 26
10 40 11 23 0 23 1 5 8 l-20 8 20 5 c19 5 19 6 -1 7 -12 0 -24 7 -27 15 -4 10
10 15 55 20 89 9 102 22 31 30 -33 4 -67 4 -75 1 -9 -4 -19 1 -23 12 -15 33
-13 43 5 43 25 0 33 15 16 29 -11 10 -16 8 -24 -5 -8 -14 -10 -14 -15 5 -7 28
8 35 71 34 47 -1 124 14 82 17 -13 0 -13 1 0 11 11 8 -5 9 -58 5 -69 -6 -73
-5 -81 16 -8 22 -5 23 52 31 78 10 108 26 51 27 -24 0 -47 6 -54 14 -6 8 -18
12 -26 9 -9 -3 -14 0 -12 8 4 20 19 29 48 30 23 0 23 1 5 9 l-20 9 20 1 c18 1
18 2 -3 10 l-22 10 20 20 c11 11 26 20 34 20 17 0 31 18 22 28 -4 3 -25 9 -49
12 -45 7 -45 8 28 36 17 7 14 9 -15 12 -53 5 -56 18 -8 35 43 15 43 15 11 16
-18 1 -33 6 -33 11 0 6 -7 10 -16 10 -14 0 -14 3 -4 16 8 9 26 14 44 13 56 -4
82 0 67 10 -11 7 -10 10 5 15 10 3 -9 4 -43 2 -34 -1 -60 1 -57 6 3 4 -1 8 -8
8 -8 0 -6 5 5 11 14 8 15 14 7 24 -9 10 -3 14 27 20 58 9 76 25 31 25 -32 0
-38 3 -38 21 0 15 -5 19 -15 15 -9 -3 -15 0 -15 10 0 8 -6 17 -14 20 -22 8
-12 39 13 40 29 2 36 11 22 28 -10 11 -8 15 6 19 12 3 8 5 -9 6 -34 1 -37 24
-5 39 21 10 21 11 2 12 l-20 1 20 9 c19 8 19 9 -2 9 -32 1 -29 19 5 27 15 3
36 9 47 14 16 7 11 9 -22 9 -23 1 -45 6 -49 13 -4 6 -3 8 4 4 6 -3 13 -2 17 4
3 5 -3 10 -14 10 -27 0 -27 16 -1 32 22 14 27 48 8 48 -7 1 -3 9 10 20 21 17
21 19 5 29 -15 8 -16 10 -3 15 8 2 22 7 30 9 8 3 0 6 -17 6 -18 1 -33 5 -33
10 0 5 9 7 20 4 12 -3 49 0 83 8 55 12 59 14 32 19 -16 3 -45 2 -63 -2 -19 -6
-39 -5 -50 1 -15 9 -14 11 8 20 18 7 20 10 8 10 -10 1 -18 6 -18 12 0 6 -7 8
-16 5 -10 -4 -14 -1 -12 6 3 7 15 15 29 19 l24 7 -23 1 c-41 2 -10 35 53 56
16 6 17 8 5 13 -8 3 -18 9 -21 14 -3 5 -20 10 -37 11 -18 1 -32 5 -32 8 0 10
108 31 127 25 10 -3 32 -2 48 3 l30 8 -43 8 c-24 4 -67 4 -96 1 -44 -6 -53 -4
-53 8 0 10 9 16 23 16 66 0 66 39 0 41 l-41 1 33 9 c31 9 44 28 20 30 -7 0 -4
4 7 9 19 8 19 8 -4 17 -24 10 -24 10 10 22 33 12 33 13 15 27 -13 9 -23 11
-30 4 -12 -12 -29 -13 -22 -1 3 5 -1 14 -9 21 -21 17 -19 34 3 25 30 -11 34
-10 37 8 2 9 -1 17 -6 17 -13 0 -11 44 3 58 7 7 8 13 3 13 -6 1 -14 2 -20 3
-14 2 -12 21 2 21 26 0 23 14 -6 31 -34 20 -44 64 -14 64 9 0 13 3 10 7 -4 3
-2 13 5 20 7 9 8 17 2 21 -23 17 -10 31 34 37 71 9 90 28 25 22 -39 -3 -53 0
-58 10 -8 23 3 32 46 39 46 8 52 24 8 24 -46 0 -69 16 -62 43 3 12 5 36 4 53
-1 28 3 32 31 38 35 7 34 15 -4 18 -16 1 -24 7 -21 15 3 7 -1 13 -9 13 -8 0
-15 7 -15 15 0 12 9 15 31 13 24 -2 31 1 30 15 -1 9 2 17 8 17 5 0 6 5 3 10
-3 6 -17 10 -31 10 -13 0 -24 5 -24 10 0 6 4 10 9 10 10 0 9 19 -2 38 -8 12
27 31 61 33 9 0 26 5 37 10 14 6 3 8 -40 6 -51 -2 -60 1 -63 17 -2 11 0 16 6
12 17 -10 23 11 7 24 -11 9 -12 16 -5 25 8 9 6 14 -5 19 -8 3 -15 13 -15 22 0
13 7 15 38 10 l37 -7 -27 25 c-16 14 -28 32 -28 41 0 24 20 56 30 50 6 -3 18
-2 27 4 17 9 17 10 0 16 -9 4 -26 5 -37 2 -13 -3 -20 0 -20 9 0 8 9 14 20 14
24 0 27 15 4 24 -8 3 -12 10 -9 16 3 5 0 10 -7 10 -9 0 -9 3 2 10 8 5 11 10 6
10 -5 0 -3 7 4 15 10 12 9 16 -4 21 -9 3 -16 10 -16 15 0 4 7 6 15 3 18 -7 20
7 3 24 -9 9 -9 12 0 12 7 0 12 11 12 25 0 14 5 25 11 25 8 0 7 6 -2 17 -8 10
-9 14 -2 10 6 -4 14 -3 18 3 3 5 0 10 -7 10 -20 0 -41 37 -25 44 8 3 7 9 -5
19 -27 21 -22 30 12 24 25 -6 30 -3 30 13 0 16 -5 19 -30 14 -26 -6 -30 -4
-30 15 0 12 7 24 15 27 8 4 15 14 15 24 0 10 7 23 15 30 21 17 8 33 -21 26
-20 -5 -24 -3 -24 15 0 12 8 28 18 35 11 9 13 16 7 21 -6 5 -11 16 -12 26 0 9
-1 23 -2 31 -2 24 -321 226 -568 360 -702 382 -1524 616 -2373 676 -167 11
-641 11 -810 -1z m-480 -372 c-14 -8 -27 -12 -30 -10 -7 6 23 23 40 23 8 0 4
-6 -10 -13z m70 9 c0 -2 -9 -6 -20 -9 -11 -3 -20 -1 -20 4 0 5 9 9 20 9 11 0
20 -2 20 -4z m731 -19 c-10 -9 -11 -8 -5 6 3 10 9 15 12 12 3 -3 0 -11 -7 -18z
m-596 -112 c97 -2 140 -13 166 -41 12 -13 28 -24 36 -24 7 0 13 -7 13 -15 0
-9 6 -18 14 -21 8 -3 20 -19 26 -35 7 -16 16 -29 21 -29 8 0 24 -40 21 -52 -1
-5 2 -8 7 -8 5 0 8 -6 7 -12 -6 -28 -19 -48 -31 -48 -7 0 -18 -13 -24 -30 -5
-16 -15 -30 -20 -30 -6 0 -8 -7 -4 -15 3 -9 2 -15 -3 -13 -10 3 -83 -69 -77
-76 3 -2 -4 -7 -15 -10 -11 -4 -23 -14 -26 -22 -3 -8 -10 -12 -16 -9 -5 3 -10
1 -10 -4 0 -6 -9 -11 -21 -11 -11 0 -18 -4 -15 -9 8 -12 -44 -62 -60 -59 -7 2
-19 -5 -26 -15 -7 -10 -23 -19 -36 -20 -12 0 -22 -6 -22 -12 0 -6 -16 -17 -35
-24 -19 -7 -35 -19 -35 -27 0 -8 -3 -13 -7 -12 -5 1 -17 -3 -29 -9 -11 -7 -34
-14 -49 -17 -16 -3 -32 -11 -37 -18 -4 -7 -8 -9 -8 -5 0 5 -6 5 -12 0 -7 -4
-17 -8 -23 -10 -5 -1 -19 -5 -31 -8 -16 -5 -24 1 -39 29 -11 20 -22 36 -25 36
-3 0 -7 11 -8 25 -1 14 -9 42 -18 63 -9 20 -17 60 -19 88 -1 29 -6 57 -10 64
-10 16 -13 70 -4 70 5 0 7 17 5 38 -2 20 1 40 8 44 8 6 8 8 -1 8 -9 0 -8 9 2
34 8 18 12 36 9 39 -3 3 0 16 7 29 14 27 69 83 69 71 0 -4 4 -2 8 4 4 7 19 14
32 16 17 2 31 16 45 43 11 21 21 41 22 43 1 2 36 5 78 6 42 1 79 5 82 9 4 3
16 3 27 0 11 -4 52 -8 91 -9z m-580 -605 c-3 -5 -14 -10 -23 -10 -15 0 -15 2
-2 10 20 13 33 13 25 0z m4263 3 c-10 -2 -26 -2 -35 0 -10 3 -2 5 17 5 19 0
27 -2 18 -5z m-3761 -199 c-3 -3 -12 -4 -19 -1 -8 3 -5 6 6 6 11 1 17 -2 13
-5z m-2002 -354 c2 -91 5 -206 5 -256 l2 -92 62 -21 c125 -42 174 -76 319
-223 l137 -140 0 64 c0 66 12 100 29 83 5 -6 12 -53 15 -105 6 -92 7 -96 40
-127 28 -26 32 -34 21 -43 -30 -25 -174 23 -217 72 -22 26 -15 37 9 16 17 -14
80 -49 85 -48 2 1 11 -2 21 -6 38 -14 25 7 -65 102 -203 215 -272 270 -386
310 -46 17 -54 17 -62 4 -5 -8 -7 -28 -4 -45 3 -16 7 -64 8 -105 4 -93 2 -85
28 -87 11 -1 24 -6 27 -11 3 -6 17 -12 31 -15 14 -2 1 -5 -28 -6 l-54 -1 6
-87 c11 -155 15 -173 42 -173 32 0 31 -18 -2 -26 -25 -6 -26 -9 -19 -53 4 -25
8 -72 10 -103 2 -32 6 -79 9 -105 3 -27 8 -77 12 -113 3 -36 7 -72 9 -81 2 -8
6 -56 10 -105 3 -49 8 -102 11 -119 5 -33 11 -91 19 -176 5 -64 20 -109 35
-109 5 0 10 -5 10 -10 0 -6 30 -55 67 -110 48 -71 73 -100 88 -100 13 0 16 -3
8 -8 -12 -7 -4 -22 57 -112 38 -56 95 -136 100 -140 4 -3 13 -16 20 -30 11
-21 98 -134 135 -176 6 -7 26 -31 45 -55 19 -24 46 -54 60 -67 l25 -24 6 173
c6 175 12 213 33 206 8 -3 11 -68 11 -220 l0 -216 50 -52 c28 -29 95 -95 149
-148 295 -285 475 -474 469 -493 -2 -4 6 -10 17 -13 11 -4 20 -10 20 -15 0 -5
11 -22 25 -37 14 -15 37 -46 51 -68 l25 -40 -36 40 c-20 22 -66 74 -103 115
-88 98 -505 510 -518 510 -2 0 -4 -7 -4 -16 0 -16 -38 -76 -52 -82 -5 -2 -6
-7 -3 -12 2 -4 -4 -15 -15 -25 -11 -10 -20 -24 -20 -31 0 -7 -6 -17 -14 -21
-8 -4 -36 -28 -62 -52 -26 -25 -72 -58 -103 -74 -31 -16 -67 -35 -81 -43 -38
-20 -252 -77 -278 -73 -4 1 -20 1 -37 0 l-30 -1 3 -217 c1 -119 4 -218 6 -221
3 -2 13 13 24 35 18 34 62 85 62 71 0 -3 -11 -30 -24 -59 -21 -48 -54 -177
-72 -282 -5 -31 -10 -38 -27 -35 -16 2 -38 36 -89 138 -37 74 -68 141 -68 148
0 8 8 12 18 10 10 -2 37 -41 67 -100 28 -53 55 -96 60 -95 14 1 32 77 29 128
-1 24 -5 114 -8 199 -3 85 -9 182 -12 215 l-6 61 -61 -2 c-34 0 -102 5 -152
12 -116 17 -325 66 -325 76 0 4 -7 8 -15 8 -18 0 -140 47 -175 67 -14 8 -45
24 -70 35 -25 12 -76 41 -115 66 -67 44 -84 56 -183 137 -75 60 -180 194 -222
282 -72 149 -114 317 -119 477 l-1 29 -152 -8 c-168 -8 -533 -8 -669 0 -103 6
-147 11 -219 26 -53 12 -54 12 -25 21 28 8 61 7 265 -7 116 -8 472 -8 605 0
66 4 136 8 155 8 l36 0 1 86 c0 47 4 106 7 131 4 25 8 59 10 75 7 59 37 220
45 245 5 14 18 57 30 95 26 87 65 183 80 198 6 6 11 16 11 23 0 44 184 330
256 399 l22 20 -20 25 c-11 14 -41 48 -66 76 -72 79 -100 112 -167 200 -64 83
-139 203 -132 211 5 4 83 -87 205 -237 42 -53 87 -107 100 -120 12 -14 43 -47
68 -74 l45 -49 42 41 c47 45 163 122 184 122 7 0 13 4 13 8 0 5 19 16 43 26
23 10 55 25 71 32 16 8 35 14 43 14 7 0 13 3 13 8 0 4 -91 8 -203 10 -296 4
-409 10 -421 22 -25 25 21 31 194 25 388 -12 470 -15 586 -21 l121 -6 -4 93
c-2 52 -6 109 -9 127 l-5 34 -71 -4 c-45 -2 -73 1 -75 8 -6 17 43 34 97 34
l50 0 1 38 c1 20 0 42 -1 47 -4 17 0 409 4 430 2 11 5 29 6 40 1 15 4 12 11
-10 5 -16 12 -104 14 -195z m5805 96 c0 -11 -19 -15 -25 -6 -3 5 1 10 9 10 9
0 16 -2 16 -4z m-6150 -362 c0 -3 -21 -14 -47 -26 -27 -11 -65 -36 -85 -55
-27 -26 -42 -34 -55 -28 -17 7 -17 8 2 15 16 7 17 9 3 9 -23 1 -42 -20 -74
-84 -21 -41 -35 -56 -55 -60 -68 -15 -112 66 -66 123 17 21 36 -5 30 -42 -7
-43 13 -57 37 -26 10 13 32 52 50 87 18 35 36 63 41 63 4 0 17 -10 29 -22 l20
-22 24 23 c35 33 146 68 146 45z m5781 -453 c14 0 43 -13 64 -27 28 -19 41
-22 49 -14 8 8 7 11 -3 8 -7 -2 -15 5 -16 15 -3 14 -1 16 10 7 8 -7 20 -8 26
-4 9 5 10 2 4 -12 -4 -10 -7 -46 -7 -79 1 -33 1 -75 1 -94 0 -18 6 -40 12 -48
10 -11 10 -16 1 -22 -13 -8 -13 -90 1 -108 5 -7 6 -21 2 -33 -4 -12 -1 -28 6
-36 9 -11 9 -20 0 -40 -12 -27 1 -60 20 -48 5 3 9 0 9 -6 0 -7 -7 -10 -15 -6
-16 6 -21 -19 -6 -29 12 -7 -7 -65 -20 -65 -5 0 -9 -5 -9 -12 0 -15 -66 -74
-105 -95 -16 -9 -34 -22 -38 -29 -4 -8 -19 -14 -32 -14 -14 0 -25 -4 -25 -9 0
-12 -39 -21 -46 -10 -3 5 -15 4 -27 -3 -26 -14 -27 -14 -38 4 -7 10 -9 10 -9
1 0 -7 -11 -13 -25 -13 -14 0 -25 -6 -26 -12 0 -10 -2 -10 -6 0 -2 6 -20 12
-38 12 -18 0 -35 6 -37 12 -3 7 -18 11 -35 10 -17 -1 -37 4 -45 11 -7 8 -19
12 -27 9 -8 -3 -11 0 -7 7 5 7 -1 11 -13 11 -11 0 -31 11 -45 25 -14 14 -30
25 -36 25 -5 0 -10 5 -10 11 0 5 -4 8 -9 5 -5 -3 -14 1 -21 9 -7 8 -10 15 -7
15 3 0 -7 13 -21 29 -42 45 -47 54 -47 84 1 15 -2 27 -5 27 -3 0 -6 9 -7 20
-1 12 4 20 13 20 8 0 13 4 9 10 -3 5 -13 6 -22 3 -12 -5 -15 -2 -10 10 3 9 3
19 -2 21 -6 4 -8 51 -3 113 1 14 10 23 25 26 15 3 12 4 -7 3 -41 -1 -43 20 -5
40 39 20 110 89 102 98 -4 3 1 6 10 6 9 0 30 14 46 31 17 17 35 28 40 24 6 -3
11 -2 11 4 0 5 10 13 22 17 12 3 28 13 36 21 8 7 23 11 33 8 11 -4 19 -2 19 5
0 6 5 8 10 5 6 -3 10 -1 10 4 0 6 11 11 23 11 13 0 27 3 31 8 4 4 24 8 44 8
20 1 39 3 42 4 3 1 15 1 28 0 12 -1 22 2 22 7 0 7 40 8 131 4z m-830 -111 c5
0 10 8 10 18 1 16 2 16 6 -1 7 -26 36 -17 44 13 6 22 7 21 8 -10 l2 -35 14 25
14 25 2 -25 c2 -23 2 -23 6 -3 4 23 33 22 33 -2 0 -33 -55 -65 -95 -55 -5 2
-28 3 -50 4 -37 1 -40 3 -42 31 -1 17 1 22 3 12 9 -28 24 -9 26 31 l1 37 4
-32 c2 -18 8 -33 14 -33z m-74 18 c-3 -8 -6 -5 -6 6 -1 11 2 17 5 13 3 -3 4
-12 1 -19z m-260 -20 c-3 -8 -6 -5 -6 6 -1 11 2 17 5 13 3 -3 4 -12 1 -19z
m239 1 c5 1 10 -10 12 -24 2 -14 8 -25 14 -25 6 0 9 -3 6 -6 -4 -3 -15 -1 -27
5 -16 9 -25 7 -47 -14 -26 -24 -47 -29 -44 -11 1 5 -4 12 -11 16 -6 5 -9 15
-6 25 4 9 11 13 17 10 5 -3 10 2 11 12 1 13 3 10 9 -7 7 -24 8 -24 16 -5 12
30 28 44 35 33 3 -5 10 -9 15 -9z m-156 -25 c0 -8 -4 -12 -10 -9 -5 3 -10 10
-10 16 0 5 5 9 10 9 6 0 10 -7 10 -16z m40 -17 c0 -5 -4 -5 -10 -2 -5 3 -10
14 -10 23 0 15 2 15 10 2 5 -8 10 -19 10 -23z m-3536 -53 c14 -107 1 -154 -43
-154 -25 0 -75 55 -68 74 8 21 20 20 42 -4 10 -11 21 -20 24 -20 4 0 8 30 9
67 2 36 5 70 8 75 12 19 22 5 28 -38z m2976 31 c52 -3 110 -5 129 -5 18 0 40
-5 48 -11 12 -10 16 -10 23 2 7 10 12 11 21 2 6 -6 18 -9 25 -6 8 3 21 0 29
-7 8 -6 23 -9 34 -5 10 3 22 1 26 -5 5 -8 12 -7 23 2 9 8 13 8 9 2 -9 -16 18
-26 49 -18 14 4 24 2 24 -5 0 -6 9 -11 20 -11 11 0 30 -6 43 -12 12 -7 23 -13
24 -14 1 0 -2 -18 -8 -39 -10 -33 -9 -41 7 -52 10 -7 14 -13 10 -13 -5 0 -3
-6 3 -14 8 -10 8 -21 1 -40 -5 -15 -10 -53 -10 -85 0 -32 -3 -61 -7 -65 -8 -8
-13 -28 -17 -69 -2 -16 -9 -32 -16 -37 -7 -4 -9 -13 -6 -19 4 -6 2 -11 -3 -11
-6 0 -11 -7 -11 -15 0 -8 -10 -23 -22 -35 -12 -11 -18 -20 -14 -20 4 0 -4 -11
-18 -24 -15 -13 -26 -31 -26 -39 0 -10 -6 -14 -14 -11 -8 3 -16 -3 -19 -15 -2
-10 -20 -27 -38 -36 -19 -10 -38 -24 -42 -31 -4 -8 -15 -14 -22 -14 -8 0 -15
-4 -15 -10 0 -6 -9 -6 -22 -1 -16 6 -26 4 -33 -6 -5 -7 -25 -14 -42 -16 -18
-1 -33 -4 -33 -7 0 -3 -14 -7 -32 -8 -18 -2 -35 -8 -39 -14 -8 -12 -130 -12
-139 0 -6 8 -31 9 -45 1 -16 -10 -77 -2 -85 11 -4 6 -14 8 -22 5 -9 -4 -18 0
-22 10 -4 13 -10 14 -26 5 -11 -6 -20 -7 -20 -2 0 6 -8 12 -17 16 -10 3 -33
15 -50 26 -18 11 -33 15 -33 10 0 -6 -5 -10 -11 -10 -5 0 -8 4 -5 8 2 4 0 14
-5 22 -8 13 -10 13 -19 0 -8 -13 -10 -12 -10 3 0 15 -11 22 -33 18 -4 -1 -7 5
-5 12 2 7 0 12 -3 12 -11 0 -79 79 -79 93 0 7 -6 15 -14 18 -8 3 -13 13 -12
22 2 9 -3 22 -10 30 -7 7 -11 18 -8 26 3 7 -2 18 -10 25 -8 7 -13 18 -10 25 3
7 0 25 -5 39 -6 16 -7 27 -1 27 5 0 3 15 -4 33 -14 35 -13 114 2 129 6 6 6 24
1 46 -9 41 -9 40 17 45 42 8 80 20 91 29 7 6 24 7 39 4 19 -5 24 -4 18 5 -5 9
-2 10 10 6 14 -6 17 -3 12 10 -5 15 -4 15 9 -1 21 -27 48 -30 42 -5 -3 12 -1
17 6 12 6 -4 8 2 4 18 -6 23 -5 23 14 -4 22 -28 43 -29 32 0 -4 11 -3 14 5 9
7 -4 12 -2 12 5 0 10 3 10 12 1 16 -16 28 -15 28 3 0 20 43 29 69 15 18 -9 21
-8 21 9 0 18 3 19 26 11 19 -7 31 -7 40 1 8 6 14 8 14 3 0 -4 5 -3 11 3 6 6
17 10 23 7 6 -2 54 -6 106 -9z m-810 -34 c0 -5 8 -11 18 -14 9 -2 3 -4 -14 -4
-19 0 -31 5 -31 13 0 8 6 14 14 14 7 0 13 -4 13 -9z m-2388 -44 c-4 -48 14
-102 41 -124 12 -10 28 -26 36 -36 26 -33 -26 -19 -68 18 -43 39 -65 102 -55
155 5 24 11 30 28 28 18 -3 20 -9 18 -41z m4000 -60 c-17 -20 -24 -127 -9
-127 8 0 7 -3 -2 -9 -9 -6 -11 -16 -5 -32 4 -13 7 -28 6 -32 -1 -4 4 -18 13
-30 8 -12 15 -34 15 -49 0 -16 4 -28 8 -28 4 0 14 -16 21 -35 7 -19 22 -47 35
-63 12 -15 26 -35 29 -45 4 -10 11 -16 16 -12 5 3 12 -4 16 -15 3 -11 13 -20
20 -20 8 0 20 -8 27 -18 7 -10 25 -22 39 -25 14 -4 37 -17 50 -29 25 -23 141
-60 192 -61 15 0 27 -3 27 -6 0 -3 15 -6 33 -5 17 0 40 -4 50 -9 12 -5 23 -4
32 3 8 6 22 10 32 9 26 -4 83 11 83 22 0 5 9 9 19 9 11 0 23 5 27 11 4 8 9 7
16 -2 7 -11 11 -11 15 -1 2 6 9 10 14 6 5 -3 9 2 9 10 0 9 7 16 14 16 8 0 27
11 42 25 14 13 31 23 37 22 6 -1 17 12 26 28 l15 30 13 -30 c7 -16 10 -41 6
-55 -13 -52 -10 -254 3 -274 11 -15 11 -23 2 -34 -7 -8 -13 -26 -14 -41 -5
-59 -12 -120 -24 -191 -7 -41 -12 -85 -11 -97 0 -16 -4 -21 -14 -17 -11 5 -15
-2 -16 -22 -1 -16 -2 -38 -3 -49 -1 -11 -11 -38 -23 -60 -12 -23 -24 -57 -28
-78 -4 -20 -13 -41 -21 -47 -7 -7 -18 -27 -24 -46 -7 -19 -20 -39 -31 -44 -10
-6 -19 -18 -19 -26 0 -16 -38 -76 -52 -82 -4 -2 -8 -10 -8 -18 0 -8 -16 -28
-35 -45 -19 -17 -35 -37 -35 -45 0 -8 -6 -14 -14 -14 -8 0 -24 -14 -36 -30
-12 -17 -25 -28 -30 -25 -15 9 -36 -5 -54 -39 -11 -20 -29 -37 -43 -41 -24 -6
-102 -81 -103 -98 0 -5 -5 -5 -10 -2 -16 10 -48 -4 -55 -25 -3 -11 -20 -22
-38 -26 -18 -3 -34 -9 -37 -13 -3 -3 -26 -16 -52 -29 -26 -13 -51 -29 -55 -35
-12 -19 -50 -37 -78 -37 -14 0 -34 -9 -45 -20 -12 -12 -25 -18 -30 -15 -5 3
-11 1 -15 -5 -4 -6 -11 -8 -16 -4 -5 3 -24 -4 -42 -15 -17 -11 -34 -19 -37
-19 -3 1 -22 -4 -42 -11 -21 -7 -42 -10 -47 -7 -5 4 -16 0 -24 -8 -8 -8 -17
-12 -21 -9 -3 3 -11 1 -18 -5 -7 -5 -30 -13 -50 -17 -21 -4 -38 -11 -38 -15 0
-5 -15 -6 -32 -4 -20 4 -45 -1 -63 -10 -21 -11 -31 -12 -36 -4 -5 8 -19 6 -48
-5 -29 -12 -42 -13 -47 -5 -5 7 -11 6 -20 -6 -10 -15 -23 -17 -81 -12 -37 3
-83 2 -101 -3 -35 -11 -66 -5 -56 10 7 12 -13 11 -38 -2 -14 -8 -23 -8 -31 0
-6 6 -28 8 -53 4 -24 -3 -51 -2 -61 2 -31 14 -46 16 -103 19 -30 2 -74 8 -96
15 -23 6 -49 8 -58 5 -11 -4 -16 0 -16 14 0 14 -9 21 -31 26 -17 3 -35 3 -40
0 -5 -3 -17 2 -26 11 -9 10 -25 14 -36 11 -13 -3 -50 10 -96 35 -41 22 -82 39
-91 38 -43 -4 -60 2 -60 20 0 14 -8 21 -27 23 -16 2 -27 8 -25 16 1 6 -2 12
-6 12 -4 0 -14 -6 -21 -12 -10 -11 -11 -10 -6 4 5 12 1 20 -11 24 -83 29 -204
100 -204 120 0 7 -17 21 -37 31 -21 9 -46 28 -56 40 -10 13 -27 23 -38 23 -10
0 -19 3 -19 8 0 4 -16 25 -35 46 -19 22 -35 42 -35 45 0 4 -14 12 -31 20 -18
8 -34 22 -36 32 -3 9 -16 20 -30 23 -18 5 -23 11 -18 26 5 16 2 20 -15 20 -16
0 -20 5 -16 18 4 12 -7 24 -39 44 -28 17 -45 34 -45 47 0 10 -7 21 -15 25 -8
3 -12 12 -9 21 4 11 -3 18 -25 26 -21 7 -31 18 -31 31 0 18 -30 59 -30 41 -1
-4 -8 4 -16 20 -8 15 -19 27 -23 27 -5 0 -7 9 -4 20 4 14 -1 21 -21 26 -14 3
-26 13 -26 21 0 10 -7 14 -20 10 -11 -3 -20 -1 -20 4 0 5 -10 9 -22 9 -13 0
-18 4 -13 8 14 9 12 38 -2 35 -18 -4 -8 28 12 44 17 12 16 13 -14 7 -25 -5
-32 -4 -27 4 5 8 -1 12 -16 12 l-23 1 25 14 c32 18 120 20 120 2 0 -7 13 -13
30 -13 16 -1 37 -5 47 -9 10 -5 26 -7 35 -6 10 1 26 -2 36 -8 13 -7 22 -7 29
0 8 8 17 7 32 0 18 -10 21 -9 21 6 0 14 2 15 9 4 6 -9 11 -10 15 -3 4 6 13 9
21 6 12 -5 43 33 33 41 -17 14 -50 23 -76 20 -18 -2 -32 -1 -32 4 0 4 -6 8
-12 9 -45 6 -58 10 -72 21 -8 7 -34 15 -56 18 -22 3 -43 10 -46 14 -3 5 -14 9
-25 9 -10 0 -19 4 -19 10 0 5 -7 7 -15 4 -8 -4 -17 1 -21 10 -3 9 -10 13 -15
10 -5 -3 -9 0 -9 6 0 6 -4 8 -10 5 -5 -3 -15 3 -22 15 -7 11 -17 20 -22 20
-15 0 -52 46 -48 59 3 10 0 10 -18 1 -20 -11 -22 -10 -17 4 4 9 3 16 -1 16
-14 0 -63 52 -59 63 2 7 -3 18 -10 26 -8 8 -12 22 -10 32 3 10 -2 20 -10 23
-8 3 -12 10 -8 15 3 5 1 12 -5 16 -13 8 -13 95 0 95 6 0 10 12 10 28 0 41 4
72 8 67 7 -7 32 23 32 37 0 21 42 54 64 50 10 -2 16 0 13 6 -4 5 -1 16 6 25
14 19 164 40 174 24 3 -4 11 -6 19 -3 8 3 14 0 14 -6 0 -16 40 -48 60 -48 18
0 53 -35 63 -62 6 -17 66 -48 94 -48 8 0 20 14 27 30 7 17 15 27 19 23 4 -3 7
-1 7 5 0 6 7 9 15 6 8 -4 15 -2 15 2 0 5 15 10 32 11 18 2 34 7 36 12 2 5 12
7 22 4 10 -3 32 4 48 15 15 12 40 24 54 27 15 4 29 13 32 22 3 8 10 11 16 8 5
-3 10 -1 10 5 0 6 5 8 10 5 6 -3 10 -2 10 3 0 5 25 17 55 27 30 11 55 22 55
26 0 5 9 6 20 4 11 -2 22 1 25 6 4 5 10 7 15 4 5 -3 11 -1 15 5 3 5 15 10 26
10 11 0 22 6 25 14 5 12 56 30 69 23 2 -1 10 7 18 17 8 11 19 16 26 12 6 -4
14 -1 17 7 3 9 17 18 32 22 14 3 31 14 37 22 16 21 49 27 41 8 -3 -8 -1 -17 5
-20 5 -4 6 -11 3 -17 -4 -6 0 -14 7 -19 10 -6 11 -9 2 -9 -17 0 -16 -29 2 -64
18 -33 19 -39 5 -31 -16 10 -12 -13 7 -41 9 -14 18 -42 20 -62 2 -21 10 -42
18 -48 8 -6 15 -16 15 -23 0 -6 7 -11 15 -11 8 0 12 -6 9 -13 -2 -7 4 -22 15
-33 10 -11 22 -30 25 -42 4 -12 13 -22 21 -22 7 0 15 -7 19 -15 3 -8 13 -15
23 -16 16 0 16 -1 -1 -8 -18 -7 -16 -9 12 -19 18 -6 32 -15 32 -20 0 -9 97
-74 115 -77 35 -5 76 -19 81 -26 3 -5 10 -7 15 -4 5 4 9 2 9 -3 0 -13 48 -32
65 -26 8 4 21 1 29 -5 9 -8 21 -8 40 -1 18 7 26 6 26 -1 0 -6 9 -9 20 -6 11 3
23 1 26 -4 7 -12 74 -11 74 1 0 6 7 10 15 10 8 0 15 -5 15 -11 0 -7 7 -8 18
-4 14 6 79 12 150 15 7 0 10 4 7 10 -3 5 7 12 22 16 15 3 35 8 43 11 8 4 20 5
26 4 7 -1 14 6 18 14 3 9 10 13 16 10 5 -3 10 0 10 9 0 8 13 17 31 21 17 4 33
13 36 22 3 8 12 12 20 9 7 -3 16 1 19 9 4 8 10 12 15 9 5 -3 9 2 9 11 0 9 13
22 30 28 17 6 28 17 26 23 -3 7 5 22 17 35 12 13 21 27 20 31 -7 21 44 -2 77
-34 42 -43 57 -46 86 -19 11 10 30 22 42 25 12 4 22 11 22 16 0 15 60 -11 75
-33 17 -25 72 -28 89 -5 22 31 5 94 -35 128 -9 8 -28 24 -41 35 -18 15 -38 20
-88 20 -63 0 -76 -5 -115 -42 -8 -7 -18 -13 -24 -13 -6 0 -11 -4 -11 -10 0 -5
-7 -10 -16 -10 -13 0 -12 5 6 35 13 22 19 42 15 55 -4 14 -2 20 9 20 10 0 13
6 9 17 -4 11 -3 14 5 9 9 -5 12 11 12 58 0 38 4 66 10 66 6 0 8 20 4 55 -5 38
-3 59 6 70 7 8 8 15 2 15 -11 0 -22 45 -13 58 9 14 76 33 93 27 8 -3 21 1 28
10 7 8 24 15 37 15 20 0 23 -3 15 -13z m1085 -23 c-3 -3 -12 -4 -19 -1 -8 3
-5 6 6 6 11 1 17 -2 13 -5z m-7281 -129 c7 -18 -29 -110 -54 -141 -35 -42 -91
-56 -133 -34 -25 14 -26 45 -1 35 9 -4 24 -9 33 -12 25 -7 76 43 95 95 26 71
47 91 60 57z m-576 -225 c0 -5 -9 -10 -19 -10 -11 0 -23 5 -26 10 -4 6 5 10
19 10 14 0 26 -4 26 -10z m2879 -245 c6 3 9 0 5 -8 -3 -8 2 -17 10 -20 8 -3
13 -14 12 -24 -2 -10 2 -21 7 -25 7 -4 6 -12 -2 -22 -18 -22 -44 -21 -37 2 3
9 -6 42 -20 71 -22 49 -23 53 -5 37 11 -10 24 -15 30 -11z m-100 -121 c22 -11
44 -14 68 -9 l36 7 -17 -27 c-17 -26 -17 -27 3 -32 25 -6 26 -16 5 -48 -9 -14
-12 -25 -7 -25 5 0 16 -11 23 -25 7 -13 17 -22 22 -19 4 3 11 -2 14 -11 4 -9
12 -14 20 -11 7 3 18 -2 24 -9 7 -8 16 -12 21 -9 5 3 9 0 9 -6 0 -6 5 -8 10
-5 6 3 16 3 23 -2 13 -8 22 -10 77 -19 62 -11 85 -11 96 -2 6 4 31 11 55 14
39 4 42 3 27 -9 -10 -8 -18 -17 -18 -22 0 -12 -37 -55 -43 -49 -3 3 -8 -4 -12
-15 -3 -12 -9 -19 -13 -17 -4 2 -13 -2 -20 -10 -7 -8 -10 -14 -6 -14 4 0 -1
-9 -11 -20 -10 -11 -22 -17 -26 -14 -5 3 -9 0 -9 -5 0 -13 -36 -51 -48 -51 -5
0 -18 -13 -30 -29 -13 -18 -34 -31 -56 -35 -22 -4 -36 -13 -36 -21 0 -21 -100
-12 -137 12 -45 28 -144 136 -139 150 3 7 1 13 -5 13 -6 0 -9 6 -7 12 3 7 -4
20 -15 29 -13 10 -20 28 -20 47 0 18 -4 32 -9 32 -5 0 -7 14 -4 30 2 17 1 30
-3 30 -4 0 -7 18 -7 40 1 22 4 40 7 40 3 0 4 11 2 24 -3 16 2 28 16 38 11 8
18 18 14 21 -3 4 -2 7 4 7 5 0 20 9 33 20 28 24 47 25 89 4z m-2419 -37 c62
-22 118 -56 139 -83 25 -31 27 -49 6 -40 -10 3 -15 -1 -15 -13 0 -10 -17 -30
-40 -45 -41 -27 -43 -29 -42 -84 1 -40 -13 -47 -66 -33 -58 16 -118 85 -128
146 -8 57 1 142 18 162 13 16 66 12 128 -10z m2720 -32 c8 -1 22 -5 31 -9 9
-4 20 -6 25 -4 13 4 55 -27 47 -35 -3 -4 1 -7 9 -7 15 0 33 -26 30 -42 -1 -5
6 -8 15 -8 9 0 14 -3 10 -6 -7 -8 -77 18 -77 28 0 4 -7 8 -15 8 -12 0 -123 46
-134 56 -2 2 -1 11 3 20 4 11 12 14 24 9 9 -4 24 -9 32 -10z m-2485 -140 c0
-56 -22 -70 -39 -24 -12 36 0 81 22 77 13 -3 17 -14 17 -53z m2655 -4 c0 -6
-4 -13 -10 -16 -5 -3 -10 1 -10 9 0 9 5 16 10 16 6 0 10 -4 10 -9z m744 -178
c-10 -7 -23 -13 -28 -12 -6 0 -5 3 2 6 6 2 10 9 7 13 -3 5 4 8 15 7 20 -1 20
-2 4 -14z m-654 -68 c0 -9 11 -21 25 -27 14 -6 25 -18 25 -25 0 -17 24 -43 39
-43 6 0 8 -7 5 -15 -4 -9 0 -15 10 -15 9 0 16 -7 16 -17 0 -9 3 -13 6 -10 4 4
14 -8 23 -25 9 -17 18 -29 21 -27 3 2 12 -3 21 -10 14 -13 13 -17 -10 -39
l-26 -23 27 17 c27 16 29 15 48 -7 10 -13 19 -27 20 -31 0 -5 6 -8 14 -8 8 0
18 -5 22 -12 4 -7 3 -8 -4 -4 -8 5 -10 2 -6 -8 5 -14 24 -21 47 -17 4 0 7 -5
7 -13 0 -7 11 -21 24 -29 13 -9 30 -22 38 -30 8 -8 28 -22 46 -31 18 -9 32
-21 32 -26 0 -5 10 -12 21 -15 12 -4 17 -10 11 -14 -15 -9 11 -31 39 -31 5 0
7 -4 4 -10 -4 -6 5 -10 19 -10 16 0 26 -6 26 -15 0 -8 7 -15 15 -15 8 0 15 -5
15 -11 0 -5 16 -17 35 -25 19 -8 35 -21 35 -29 0 -8 7 -15 15 -15 8 0 15 -4
15 -10 0 -5 6 -10 14 -10 8 0 21 -9 28 -19 8 -11 26 -23 40 -26 15 -4 29 -13
32 -21 3 -7 12 -11 21 -8 11 5 14 2 8 -12 -5 -13 -3 -16 10 -11 9 3 17 2 17
-3 0 -5 6 -7 14 -4 7 3 20 -2 29 -10 9 -9 23 -16 31 -16 10 0 13 -6 9 -17 -5
-12 -2 -15 10 -10 10 4 17 2 17 -4 0 -6 7 -9 15 -5 9 3 19 -3 25 -15 6 -11 14
-17 19 -15 4 3 19 -1 34 -9 14 -7 28 -10 32 -7 3 4 3 -1 0 -10 -5 -12 2 -18
27 -23 18 -4 42 -14 54 -22 12 -7 29 -10 39 -7 13 5 16 4 11 -4 -4 -7 -1 -12
9 -12 9 0 14 -4 10 -10 -3 -5 16 -12 45 -16 27 -4 50 -12 50 -18 0 -7 8 -13
18 -14 38 -4 52 -9 69 -23 10 -8 28 -14 40 -13 12 0 24 -5 27 -13 4 -9 14 -11
29 -8 16 4 30 1 41 -10 15 -15 17 -15 22 0 4 9 10 12 13 7 8 -13 71 -26 71
-15 0 5 16 9 35 10 22 1 33 -3 28 -10 -4 -6 0 -8 9 -5 18 8 40 -26 31 -48 -4
-12 -3 -15 5 -10 7 4 12 13 12 21 0 7 6 15 13 18 17 6 57 -22 57 -40 0 -11 4
-13 13 -6 16 12 25 11 62 -9 17 -8 35 -13 41 -11 6 2 24 -3 40 -12 16 -8 30
-11 32 -6 2 6 12 1 23 -10 15 -15 24 -17 38 -9 15 7 20 6 25 -6 5 -12 14 -15
36 -11 23 5 33 2 46 -16 l16 -22 -5 23 c-3 12 -1 22 4 22 5 0 9 -6 9 -12 0 -7
11 -18 24 -24 20 -9 23 -9 19 2 -3 8 0 14 6 14 6 0 11 -7 11 -15 0 -8 5 -15
10 -15 6 0 10 6 10 14 0 10 14 13 53 11 28 -1 59 -6 68 -9 10 -4 20 -3 24 3 4
7 13 6 28 -3 14 -8 42 -12 77 -9 30 2 76 4 103 4 26 -1 47 3 47 8 0 5 12 7 28
5 69 -12 101 -13 107 -4 3 5 12 7 19 4 8 -3 17 -1 21 5 3 6 17 8 30 5 12 -3
26 -1 30 6 4 6 16 8 27 4 11 -3 31 0 45 7 19 10 28 10 43 1 17 -10 22 -8 36
14 10 14 20 21 23 15 4 -7 20 -5 46 4 22 8 48 14 58 15 9 0 17 5 17 11 0 5 5
7 10 4 6 -3 22 3 36 14 39 30 50 26 81 -26 29 -51 38 -63 65 -93 9 -10 14 -21
10 -24 -3 -3 0 -6 6 -6 7 0 12 -7 12 -15 0 -8 8 -19 19 -24 10 -6 24 -24 31
-41 7 -16 17 -30 22 -30 13 0 38 -26 38 -39 0 -5 6 -14 14 -18 8 -4 16 -15 18
-23 2 -8 18 -22 37 -31 29 -14 31 -18 15 -22 -18 -5 -17 -5 3 -12 12 -4 25
-16 28 -26 4 -10 11 -19 16 -19 12 0 39 -25 39 -37 1 -4 15 -17 33 -28 17 -11
41 -35 52 -52 11 -18 28 -32 38 -33 9 0 17 -4 17 -10 0 -5 7 -10 15 -10 9 0
18 -7 21 -15 4 -8 11 -15 16 -15 6 0 19 -12 30 -26 11 -14 27 -23 34 -20 9 3
14 -2 14 -14 0 -14 7 -20 21 -20 11 0 17 -4 14 -10 -3 -5 1 -10 9 -10 8 0 21
-8 28 -19 7 -10 28 -22 46 -25 17 -4 32 -14 32 -21 0 -9 6 -12 15 -8 10 3 15
0 13 -8 -2 -9 4 -13 15 -11 9 2 17 -3 17 -10 0 -10 2 -11 8 0 7 9 13 8 27 -8
10 -11 24 -20 32 -20 8 0 11 -5 7 -12 -5 -8 -2 -9 9 -5 10 4 17 2 17 -4 0 -6
7 -9 15 -5 8 3 20 -3 27 -12 7 -10 23 -19 36 -20 43 -3 51 -5 46 -14 -6 -10
44 -30 57 -22 5 3 16 -2 25 -11 9 -9 23 -14 31 -11 8 3 21 -1 29 -9 10 -9 34
-15 65 -15 27 0 49 -4 49 -10 0 -5 16 -10 36 -10 19 0 44 -4 54 -10 11 -6 28
-6 42 -1 17 6 26 4 35 -8 9 -13 14 -14 24 -3 17 16 29 15 29 -1 0 -9 -15 -12
-47 -11 -31 1 -54 -4 -65 -14 -10 -8 -18 -11 -18 -5 0 5 -6 10 -12 10 -7 0
-20 4 -29 7 -12 5 -18 0 -23 -16 -6 -22 -7 -22 -21 -4 -14 19 -15 19 -32 0
-22 -23 -122 -32 -135 -11 -5 8 -8 4 -8 -10 0 -28 -3 -28 -37 -6 -19 13 -28
14 -31 5 -7 -21 -31 -13 -46 16 l-15 27 -1 -25 c0 -28 -28 -37 -61 -20 -12 7
-19 5 -23 -5 -10 -26 -26 -16 -26 15 0 44 -20 37 -21 -7 -1 -21 -3 -30 -6 -20
-5 19 -23 24 -23 6 0 -6 -9 -9 -20 -6 -11 3 -20 0 -20 -6 0 -7 -5 -5 -10 3 -8
13 -10 13 -10 -2 0 -14 -38 -37 -43 -26 -17 33 -28 43 -48 45 -32 3 -52 7 -64
15 -5 3 -28 7 -50 9 -22 2 -58 10 -80 19 -22 10 -48 16 -57 14 -9 -1 -22 4
-29 12 -6 8 -15 11 -20 8 -5 -3 -12 1 -15 10 -3 8 -12 12 -20 9 -9 -3 -14 1
-14 12 0 9 -4 14 -8 11 -15 -9 -82 17 -82 32 0 8 -6 12 -15 9 -8 -4 -22 4 -33
18 -11 13 -23 21 -26 17 -4 -4 -14 2 -22 12 -8 11 -23 21 -34 23 -12 2 -33 14
-48 28 -15 14 -30 25 -34 25 -4 0 -10 9 -13 20 -4 11 -9 18 -13 16 -10 -5 -32
20 -25 28 4 3 2 6 -4 6 -15 0 -54 36 -46 44 3 3 -12 6 -35 6 -29 0 -48 -6 -63
-21 -18 -18 -20 -29 -15 -100 3 -43 8 -84 11 -89 3 -6 1 -10 -6 -10 -7 0 -8
-4 -2 -12 5 -7 8 -29 7 -48 0 -19 3 -41 9 -47 5 -7 7 -13 4 -13 -3 0 1 -21 9
-47 24 -76 24 -84 6 -90 -9 -4 -25 -15 -34 -25 -16 -19 -17 -19 -21 4 l-4 23
-8 -22 c-9 -29 -25 -30 -25 -2 0 30 -42 22 -51 -11 -7 -24 -7 -24 -8 -2 -1 26
-18 30 -24 5 -2 -10 -2 -1 0 20 3 23 1 37 -6 37 -6 0 -11 -9 -11 -20 0 -21
-30 -29 -30 -7 -1 6 -9 -4 -20 -23 -16 -29 -19 -31 -20 -13 0 12 5 23 12 25 7
3 9 14 3 34 l-7 29 -16 -32 c-9 -18 -22 -33 -29 -33 -7 0 -14 -10 -14 -22 -1
-14 -6 -5 -12 20 -7 31 -15 42 -28 42 -15 0 -19 -8 -21 -42 -1 -37 -2 -39 -5
-10 -5 36 -10 39 -29 15 -12 -16 -13 -12 -14 30 0 58 -20 63 -21 5 0 -40 -1
-41 -11 -18 l-11 25 -6 -25 c-6 -21 -8 -22 -14 -7 -3 9 -11 17 -17 17 -5 0
-10 -8 -11 -17 0 -12 -2 -13 -6 -5 -4 10 -8 9 -19 -5 -12 -16 -13 -16 -14 -1
0 28 -19 31 -40 6 -11 -13 -19 -17 -20 -11 0 17 -39 11 -51 -8 -5 -9 -6 1 -2
25 5 31 3 37 -8 32 -8 -3 -22 -9 -31 -12 -10 -4 -18 -13 -18 -20 0 -8 -6 -13
-12 -11 -7 1 -13 -5 -13 -13 0 -8 -8 -25 -16 -38 -13 -18 -22 -22 -45 -16 -16
3 -42 7 -59 8 -16 1 -36 5 -42 9 -7 5 -13 4 -13 -1 0 -5 -9 -12 -20 -15 -11
-3 -20 0 -20 5 0 7 -5 7 -13 0 -7 -6 -33 -10 -58 -8 -24 2 -48 1 -53 -2 -5 -3
-33 -5 -62 -6 -30 0 -54 -4 -54 -8 0 -7 -34 -3 -49 7 -5 3 -12 1 -15 -4 -3 -5
-15 -7 -25 -4 -10 3 -28 0 -39 -6 -24 -13 -46 -73 -39 -102 3 -13 0 -22 -10
-26 -12 -5 -12 -7 -1 -15 10 -8 11 -11 0 -15 -10 -4 -10 -8 -1 -19 9 -11 8
-14 -1 -14 -8 0 -10 -3 -7 -6 3 -4 1 -16 -4 -27 -8 -14 -8 -22 1 -27 7 -4 10
-16 8 -26 -2 -11 3 -24 12 -31 13 -11 11 -12 -13 -13 l-28 0 24 -22 c13 -13
22 -29 20 -35 -3 -8 5 -13 22 -13 23 0 26 -2 15 -15 -7 -8 -21 -15 -31 -15
-30 0 -22 -18 11 -25 17 -4 28 -10 26 -14 -3 -4 -1 -13 4 -21 5 -9 5 -19 -2
-27 -7 -9 -6 -14 6 -19 15 -6 15 -8 -1 -20 -17 -12 -16 -13 5 -9 19 3 21 1 12
-16 -11 -19 -4 -24 28 -20 10 2 12 -4 7 -18 -5 -16 -2 -21 12 -21 15 0 16 -2
3 -10 -12 -8 -10 -10 10 -10 20 0 22 -2 10 -10 -8 -5 -10 -10 -4 -10 12 0 59
-69 70 -102 12 -40 36 -54 85 -50 9 1 19 11 22 23 5 18 8 19 29 8 23 -13 29
-15 49 -18 5 0 7 -5 4 -11 -3 -5 0 -10 7 -10 7 -1 3 -6 -10 -13 -17 -10 -20
-15 -10 -25 9 -9 8 -12 -5 -12 -9 0 -17 -4 -17 -10 0 -5 8 -10 18 -10 21 0 27
-36 6 -44 -16 -6 -8 -36 10 -36 14 0 19 -37 5 -45 -16 -10 -10 -25 11 -25 17
0 19 -6 17 -40 -1 -22 -6 -40 -10 -40 -5 0 -5 -5 -2 -10 3 -5 0 -10 -7 -11 -7
0 0 -6 16 -13 27 -12 28 -14 10 -24 -18 -11 -18 -11 0 -12 16 0 18 -5 13 -35
-5 -28 -2 -35 11 -36 11 0 12 -3 5 -6 -7 -2 -13 -11 -13 -19 0 -8 -6 -14 -12
-14 -7 0 -2 -6 12 -13 36 -18 37 -43 3 -52 -21 -6 -23 -9 -10 -12 9 -3 17 -9
17 -14 0 -5 7 -9 15 -9 18 0 20 -36 3 -43 -8 -4 -7 -6 4 -6 9 -1 23 -15 32
-32 13 -26 13 -31 0 -36 -19 -7 -18 -20 4 -25 13 -4 18 -13 16 -36 -1 -18 4
-33 11 -36 18 -7 15 -44 -4 -51 -12 -5 -12 -8 -3 -14 9 -6 8 -12 -7 -25 -15
-14 -21 -15 -32 -4 -8 7 -41 14 -73 16 -33 1 -65 7 -71 12 -7 6 -15 7 -18 4
-3 -3 -12 -2 -19 2 -7 5 -23 7 -36 5 -13 -1 -29 2 -37 9 -23 19 -70 28 -90 18
-13 -8 -16 -7 -11 1 5 7 -5 12 -31 13 -35 1 -51 3 -63 8 -13 5 -48 12 -80 17
-19 3 -41 10 -48 16 -10 8 -16 7 -22 -2 -5 -9 -10 -10 -14 -2 -4 6 -18 11 -31
11 -12 0 -26 8 -29 17 -5 12 -9 14 -18 5 -17 -17 -28 -15 -28 4 0 10 -5 14
-15 10 -9 -3 -23 -2 -33 3 -52 26 -71 33 -81 27 -6 -4 -11 -2 -11 4 0 7 -7 10
-15 6 -8 -3 -15 -1 -15 4 0 6 -9 10 -20 10 -11 0 -20 5 -20 11 0 7 -11 9 -30
6 -22 -5 -30 -3 -30 8 0 13 -23 19 -67 18 -7 -1 -13 3 -13 9 0 5 -4 7 -9 4 -5
-3 -12 1 -15 10 -4 9 -9 14 -13 11 -3 -4 -17 3 -31 13 -13 11 -35 20 -47 20
-12 0 -28 7 -35 15 -7 8 -16 13 -20 10 -5 -3 -17 7 -28 23 -11 15 -30 28 -43
29 -12 1 -25 7 -29 14 -5 6 -13 8 -20 4 -8 -5 -11 -4 -6 3 3 6 -3 16 -14 22
-11 6 -20 18 -20 26 0 9 -6 14 -12 12 -12 -4 -20 1 -53 30 -8 7 -19 11 -24 8
-12 -8 -3 30 20 81 10 24 19 47 19 53 0 5 7 10 15 10 11 0 14 7 9 25 -5 19 -3
25 7 23 8 -2 13 4 11 14 -1 10 9 42 23 71 14 30 25 62 25 73 0 16 2 17 10 4 7
-11 10 -7 10 18 0 25 5 35 20 39 22 6 27 23 8 24 -10 0 -10 2 0 6 6 2 10 9 7
13 -3 5 8 37 25 72 17 35 32 75 33 89 1 17 7 25 15 22 6 -3 12 0 12 6 0 6 -4
11 -8 11 -5 0 -9 7 -9 15 0 8 3 13 5 10 7 -6 31 27 32 43 0 8 -5 10 -12 6 -7
-4 -5 2 6 14 10 12 19 33 19 48 0 18 6 28 18 31 20 6 26 23 9 23 -7 0 -7 6 -1
18 6 9 20 46 31 82 12 36 26 75 32 87 6 12 12 32 13 45 1 13 3 29 4 36 0 7 6
10 12 6 8 -5 10 1 7 20 -3 14 -1 26 3 26 5 0 9 7 9 15 0 8 4 15 10 15 5 0 8
19 7 43 -2 28 2 46 11 53 14 10 19 30 21 82 1 12 7 22 16 22 8 0 15 5 15 10 0
6 -5 10 -11 10 -8 0 -9 4 0 13 6 8 8 17 4 20 -3 4 -1 12 5 20 6 7 9 25 8 41
-3 22 2 32 25 45 16 9 29 19 29 24 0 4 11 12 25 17 14 5 25 14 25 20 0 11 -23
14 -34 3 -3 -4 -15 -8 -26 -10 -14 -2 -20 3 -20 17 0 11 5 20 12 20 8 0 9 27
5 95 -5 79 -4 97 8 101 19 8 20 24 1 24 -7 0 -19 7 -27 16 -7 8 -21 13 -31 10
-13 -3 -23 3 -30 20 -10 21 -26 28 -65 27 -7 -1 -13 8 -13 18 0 11 -4 19 -10
19 -5 0 -10 -4 -10 -10 0 -5 -7 -10 -15 -10 -11 0 -12 5 -5 26 15 39 10 53 -6
17 -13 -32 -34 -45 -34 -22 0 18 -28 41 -35 29 -4 -7 -11 -7 -18 -2 -7 5 -29
15 -49 21 -21 7 -38 17 -38 22 0 9 -42 31 -65 34 -25 4 -45 18 -45 32 0 9 -6
13 -15 9 -8 -3 -15 -1 -15 4 0 6 -5 10 -10 10 -6 0 -23 11 -37 24 -15 14 -30
23 -35 20 -4 -3 -8 0 -8 6 0 6 -4 9 -8 6 -5 -3 -15 4 -22 15 -8 10 -22 19 -32
19 -10 0 -18 7 -18 16 0 8 -4 13 -9 10 -5 -3 -20 5 -35 19 -14 13 -26 21 -26
17 0 -3 -7 4 -16 16 -8 12 -23 22 -33 22 -11 0 -22 7 -25 16 -3 8 -10 12 -16
9 -6 -4 -10 5 -10 19 0 18 -5 26 -18 26 -10 0 -24 9 -32 20 -8 11 -20 20 -27
20 -7 0 -10 7 -7 15 4 9 0 15 -8 15 -8 0 -25 9 -38 20 -13 11 -32 20 -42 20
-11 0 -17 4 -14 9 3 4 -15 25 -39 47 -25 21 -45 44 -45 51 0 7 -7 13 -15 13
-8 0 -14 5 -12 12 1 7 -3 12 -9 13 -17 0 -81 60 -77 72 2 6 -5 13 -17 16 -15
4 -18 10 -13 24 6 16 5 17 -13 3 -10 -8 -16 -11 -13 -7 4 4 -7 22 -22 38 -16
17 -29 37 -29 45 0 8 -7 14 -15 14 -8 0 -15 6 -15 14 0 8 -7 17 -16 20 -11 4
-14 13 -11 27 4 15 1 19 -11 17 -20 -3 -69 29 -59 39 4 3 -5 15 -20 25 -16 10
-24 18 -19 18 6 0 -5 16 -24 35 -30 31 -33 38 -22 56 11 18 10 19 -13 13 -27
-7 -35 12 -14 33 9 9 7 10 -10 6 -20 -5 -26 3 -22 35 1 6 -2 12 -7 12 -4 0
-16 6 -26 13 -16 12 -17 17 -6 37 11 20 10 22 -4 17 -9 -4 -16 -3 -17 1 -3 30
-9 47 -18 50 -6 2 -18 20 -27 40 -9 20 -23 50 -31 66 -16 29 -15 30 13 52 16
13 42 36 59 51 16 15 33 27 37 26 4 -2 8 2 8 8 0 15 101 109 117 109 7 0 13
-7 13 -15z m740 -125 c-19 -13 -30 -13 -30 0 0 6 10 10 23 10 18 0 19 -2 7
-10z m17 -32 c-3 -8 -6 -5 -6 6 -1 11 2 17 5 13 3 -3 4 -12 1 -19z m-258 -119
c-15 -12 -19 -19 -10 -19 8 0 12 -2 9 -5 -9 -9 -38 6 -38 20 0 13 18 21 49 21
7 1 3 -7 -10 -17z m16 -39 c-3 -5 -12 -10 -18 -10 -7 0 -6 4 3 10 19 12 23 12
15 0z m33 -39 c3 -8 -1 -12 -9 -9 -7 2 -15 10 -17 17 -3 8 1 12 9 9 7 -2 15
-10 17 -17z m42 -23 c0 -4 -9 -8 -21 -8 -11 0 -18 4 -15 8 3 5 12 9 21 9 8 0
15 -4 15 -9z m30 -23 c-7 -8 -18 -15 -24 -15 -6 0 -2 7 8 15 25 19 32 19 16 0z
m300 -15 c0 -5 -4 -10 -10 -10 -5 0 -10 5 -10 10 0 6 5 10 10 10 6 0 10 -4 10
-10z m-3934 -25 c87 -7 114 -13 114 -24 0 -15 -96 -24 -167 -16 -65 7 -66 7
-60 -17 3 -12 8 -38 12 -55 10 -42 -14 -45 -36 -5 -24 40 -30 77 -19 108 10
24 14 26 48 20 21 -3 70 -8 108 -11z m-193 -93 c-4 -66 -1 -101 12 -145 16
-56 18 -58 43 -52 35 9 298 15 340 8 43 -7 41 -21 -5 -25 l-38 -3 2 -48 c3
-57 23 -103 64 -145 25 -25 35 -30 49 -22 16 8 19 6 22 -16 2 -20 15 -30 61
-51 31 -14 60 -23 63 -20 8 8 -6 96 -41 255 -27 123 -26 155 1 117 20 -27 49
-141 85 -337 8 -47 14 -58 30 -58 32 0 109 -24 109 -34 0 -5 -27 -6 -65 -3
l-64 6 10 -26 c5 -14 7 -28 5 -30 -3 -3 -1 -15 4 -27 4 -13 11 -58 14 -102 9
-109 10 -115 29 -125 8 -5 63 -12 121 -15 110 -7 240 11 316 43 l35 14 -31 27
c-17 15 -46 35 -64 45 -59 32 -23 30 41 -2 36 -18 70 -29 81 -25 32 10 37 -4
21 -63 -16 -61 -66 -167 -83 -178 -23 -14 -23 7 -1 71 13 35 21 68 17 71 -3 3
-25 1 -48 -6 -121 -37 -308 -49 -392 -26 l-28 8 6 -59 c18 -167 27 -619 15
-724 -3 -30 -7 -46 -8 -35 -1 11 -4 31 -6 45 -1 14 -6 102 -9 195 -8 229 -14
330 -26 455 -6 58 -10 111 -10 118 0 6 -6 12 -12 12 -26 0 -134 59 -176 95
-76 66 -104 176 -73 287 l14 48 -38 37 c-52 53 -88 133 -83 187 l3 43 -50 -4
c-27 -2 -78 -6 -111 -9 l-62 -5 -12 -60 c-16 -74 -57 -140 -109 -176 -46 -32
-46 -36 4 -121 19 -31 53 -90 77 -130 24 -41 54 -95 68 -122 14 -26 31 -54 37
-61 30 -38 115 -224 158 -349 42 -118 70 -291 46 -276 -5 3 -12 27 -15 53 -4
27 -11 62 -16 78 -44 147 -46 152 -107 285 -25 54 -107 200 -252 449 -81 139
-130 234 -155 302 l-18 47 -34 -11 c-37 -11 -47 -8 -39 14 8 20 63 51 120 66
145 40 157 44 149 61 -27 65 -35 106 -35 176 1 79 11 109 36 100 11 -4 12 -25
8 -92z m4176 55 c8 -10 8 -16 0 -24 -14 -14 -39 6 -32 24 7 17 18 16 32 0z
m3871 9 c0 -2 -7 -7 -16 -10 -8 -3 -12 -2 -9 4 6 10 25 14 25 6z m-4053 -82
c-9 -9 -28 6 -21 18 4 6 10 6 17 -1 6 -6 8 -13 4 -17z m229 -3 c-4 -5 -1 -11
6 -13 7 -3 5 -7 -6 -11 -10 -4 -15 -3 -11 3 3 6 1 10 -5 10 -6 0 -8 5 -5 10 3
6 11 10 16 10 6 0 8 -4 5 -9z m41 -37 c-3 -3 -12 -4 -19 -1 -8 3 -5 6 6 6 11
1 17 -2 13 -5z m43 -34 c0 -10 -37 -20 -44 -12 -3 3 -1 11 5 18 11 13 39 9 39
-6z m41 -73 c-10 -9 -11 -8 -5 6 3 10 9 15 12 12 3 -3 0 -11 -7 -18z m19 -17
c0 -5 -5 -10 -11 -10 -5 0 -7 5 -4 10 3 6 8 10 11 10 2 0 4 -4 4 -10z m135
-130 c-3 -5 -12 -10 -18 -10 -7 0 -6 4 3 10 19 12 23 12 15 0z m2295 -270 c0
-5 -6 -10 -14 -10 -8 0 -18 -4 -21 -10 -4 -6 1 -7 11 -3 12 4 15 3 10 -5 -4
-7 -2 -12 6 -12 8 0 6 -5 -5 -11 -20 -12 -37 -4 -37 17 0 8 -4 14 -10 14 -20
0 -10 19 13 23 39 8 47 7 47 -3z m1177 -22 c-3 -8 -6 -5 -6 6 -1 11 2 17 5 13
3 -3 4 -12 1 -19z m-4427 -53 c0 -8 -7 -15 -15 -15 -26 0 -18 20 13 29 1 1 2
-6 2 -14z m3270 -5 c7 -12 16 -18 23 -13 7 4 7 0 -2 -10 -16 -21 -35 -23 -28
-3 3 8 -2 16 -14 19 -22 6 -26 27 -4 27 8 0 19 -9 25 -20z m1162 -10 c3 -16 1
-30 -4 -30 -4 0 -8 14 -8 30 0 17 2 30 4 30 2 0 6 -13 8 -30z m-6567 -142 c0
-132 -5 -162 -25 -142 -11 11 -24 259 -15 274 4 6 14 10 23 8 15 -3 17 -21 17
-140z m5445 102 c-8 -5 -19 -10 -25 -10 -5 0 -3 5 5 10 8 5 20 10 25 10 6 0 3
-5 -5 -10z m-5112 -49 c18 -58 16 -74 -7 -61 -11 5 -26 7 -34 4 -8 -3 -38 6
-65 20 -46 23 -52 24 -66 10 -9 -8 -16 -23 -17 -32 -1 -11 -3 -9 -7 6 -10 33
-26 28 -34 -10 -7 -36 12 -60 24 -30 6 16 7 16 7 0 1 -23 -17 -32 -35 -17 -10
8 -13 21 -9 36 3 13 -2 37 -10 53 -14 28 -14 31 0 37 9 3 21 1 27 -5 7 -7 18
-6 36 4 21 11 31 11 59 -1 19 -8 46 -24 60 -35 30 -24 39 -20 24 8 -18 34 -13
52 12 52 19 0 26 -8 35 -39z m1892 9 c0 -3 -6 -7 -14 -7 -8 0 -12 6 -8 15 4
11 1 13 -8 7 -9 -5 -11 -4 -6 4 6 9 11 9 22 0 8 -6 14 -15 14 -19z m3215 10
c-3 -5 -11 -10 -16 -10 -6 0 -7 5 -4 10 3 6 11 10 16 10 6 0 7 -4 4 -10z
m1020 -20 c3 -5 2 -10 -4 -10 -5 0 -13 5 -16 10 -3 6 -2 10 4 10 5 0 13 -4 16
-10z m-117 -37 c2 -8 -5 -13 -17 -13 -12 0 -21 6 -21 16 0 18 31 15 38 -3z
m106 -14 c-3 -5 -10 -7 -15 -3 -5 3 -7 10 -3 15 3 5 10 7 15 3 5 -3 7 -10 3
-15z m-908 -35 c0 -9 5 -19 12 -21 7 -3 12 4 12 17 0 37 24 16 31 -26 9 -54
-8 -61 -48 -17 -26 28 -31 39 -22 49 15 18 17 18 15 -2z m-3126 -44 c0 -14 -7
-20 -22 -20 -20 0 -21 1 -3 20 10 11 20 20 22 20 1 0 3 -9 3 -20z m45 -20 c3
-5 1 -10 -4 -10 -6 0 -11 5 -11 10 0 6 2 10 4 10 3 0 8 -4 11 -10z m3150 -30
c-3 -5 -12 -10 -18 -10 -7 0 -6 4 3 10 19 12 23 12 15 0z m59 -54 c-10 -8 -21
-12 -24 -10 -2 3 2 9 10 14 8 6 11 10 7 10 -5 0 -5 5 -1 11 4 8 9 8 17 0 8 -8
5 -15 -9 -25z m22 -33 c-10 -10 -19 5 -10 18 6 11 8 11 12 0 2 -7 1 -15 -2
-18z m-2968 -393 c1 -23 0 -23 -8 -5 -5 11 -8 34 -8 50 0 29 0 29 8 5 4 -14 8
-36 8 -50z m53 -3 c-13 -13 -15 11 -4 40 7 16 8 15 11 -6 2 -13 -1 -28 -7 -34z
m201 -70 c-3 -10 1 -30 9 -43 9 -18 10 -30 3 -42 -14 -22 -36 -28 -28 -8 7 18
-7 21 -22 6 -17 -17 -44 0 -44 26 0 17 6 24 19 24 11 0 23 -6 27 -12 6 -9 10
-5 14 12 4 14 3 30 -2 36 -4 6 -6 19 -2 27 8 23 33 -1 26 -26z m144 -65 c-13
-12 -26 14 -25 51 l1 42 14 -44 c8 -25 12 -46 10 -49z m-279 -34 c-3 -8 -6 -5
-6 6 -1 11 2 17 5 13 3 -3 4 -12 1 -19z m2393 -24 c0 -8 5 -12 10 -9 6 3 10 2
10 -4 0 -5 20 -17 45 -26 24 -10 43 -22 42 -29 -1 -6 4 -10 11 -8 6 1 12 -3
12 -9 0 -5 5 -7 11 -4 5 4 19 -1 29 -10 10 -9 23 -14 28 -11 6 3 12 0 15 -7 3
-8 21 -22 41 -31 37 -17 39 -23 27 -66 -7 -25 -8 -25 -15 -3 -5 16 -15 21 -36
21 -19 -1 -36 7 -49 23 l-20 24 -1 -27 c0 -17 -5 -28 -14 -28 -8 0 -17 -8 -20
-17 -3 -10 -3 -1 0 20 4 29 2 37 -11 37 -12 0 -14 -8 -9 -38 4 -28 2 -41 -10
-51 -14 -12 -15 -10 -10 18 5 24 3 31 -10 31 -9 0 -16 6 -16 14 0 8 -5 18 -12
22 -8 5 -10 -7 -5 -45 5 -45 4 -50 -8 -37 -8 8 -15 22 -15 30 0 14 -3 14 -20
4 -11 -7 -20 -21 -20 -30 0 -10 -4 -18 -9 -18 -17 0 -20 29 -4 60 15 32 22
168 8 189 -7 13 2 31 16 31 5 0 9 -7 9 -16z m1570 -75 c0 -5 -4 -9 -10 -9 -5
0 -10 7 -10 16 0 8 5 12 10 9 6 -3 10 -10 10 -16z m-1210 -127 l0 -26 -21 21
c-23 22 -18 46 6 36 8 -3 15 -17 15 -31z m-53 -9 c-3 -10 -5 -4 -5 12 0 17 2
24 5 18 2 -7 2 -21 0 -30z m84 -10 c-9 -16 -10 -14 -11 12 0 21 3 26 11 18 8
-8 8 -16 0 -30z m-504 -25 c-3 -8 -6 -5 -6 6 -1 11 2 17 5 13 3 -3 4 -12 1
-19z m-4071 -174 c-4 -9 -9 -15 -11 -12 -3 3 -3 13 1 22 4 9 9 15 11 12 3 -3
3 -13 -1 -22z m-1471 -245 c11 -16 2 -17 -25 -2 -24 12 -24 13 -3 13 12 0 25
-5 28 -11z m3129 -850 c-8 -14 -24 -10 -24 6 0 9 6 12 15 9 8 -4 12 -10 9 -15z
m606 -423 c0 -15 6 -17 29 -14 17 2 28 1 25 -4 -3 -5 7 -8 23 -6 15 1 46 -8
69 -20 27 -14 45 -17 55 -11 21 13 39 11 39 -6 0 -9 6 -12 16 -8 9 3 20 0 24
-7 5 -7 32 -14 66 -15 33 -1 63 -3 68 -4 4 0 1 -13 -9 -27 -10 -15 -17 -51
-19 -92 -2 -37 -4 -69 -6 -72 -1 -3 -2 -24 -2 -47 0 -25 -4 -43 -11 -43 -8 0
-8 -3 0 -11 7 -7 8 -21 3 -39 -4 -15 -4 -33 0 -41 5 -7 4 -22 -3 -33 -6 -12
-10 -25 -8 -31 8 -25 6 -95 -2 -98 -6 -2 -10 -40 -11 -85 0 -45 -4 -82 -8 -82
-4 0 -5 -18 -2 -40 3 -25 1 -40 -6 -40 -6 0 -9 -15 -7 -35 3 -20 0 -38 -5 -41
-5 -3 -6 -14 -3 -25 4 -13 2 -19 -8 -19 -9 0 -17 4 -19 10 -3 9 -133 22 -209
21 -15 0 -35 9 -45 20 -18 20 -18 21 4 39 14 12 22 29 22 49 0 20 5 31 14 31
11 0 14 11 11 46 -2 25 -6 48 -9 51 -3 4 -1 12 5 20 6 7 7 13 2 13 -5 0 -9 19
-10 41 0 23 -6 44 -11 48 -6 4 -9 29 -8 56 2 28 -1 55 -5 61 -14 18 -18 74 -5
74 6 0 4 6 -4 13 -9 7 -16 26 -17 42 -3 50 -7 69 -21 84 -11 12 -11 15 0 22 8
5 9 9 2 9 -12 0 -24 41 -30 104 -2 22 -7 42 -12 45 -5 3 -9 13 -10 21 -1 24
-7 44 -20 67 -18 32 -16 34 28 31 31 -2 40 -7 40 -22z m994 -95 c4 -5 -3 -7
-14 -4 -23 6 -26 13 -6 13 8 0 17 -4 20 -9z m-34 -25 c0 -2 -7 -7 -16 -10 -8
-3 -12 -2 -9 4 6 10 25 14 25 6z m36 -42 c22 -6 29 -16 25 -38 -1 -4 2 -13 7
-20 8 -10 18 -41 27 -89 2 -9 11 -24 19 -33 9 -8 16 -24 16 -35 0 -10 4 -19
10 -19 5 0 7 -6 4 -14 -3 -8 0 -17 5 -21 6 -3 9 -11 6 -16 -4 -5 1 -9 9 -9 10
0 16 -9 16 -22 0 -12 7 -30 17 -40 11 -13 12 -18 3 -18 -10 0 -10 -3 0 -15 7
-8 9 -15 4 -16 -5 0 1 -4 13 -9 15 -6 20 -15 16 -29 -4 -14 2 -27 17 -39 13
-11 23 -29 23 -45 0 -16 10 -37 23 -50 13 -12 24 -33 24 -45 0 -14 7 -26 18
-29 13 -3 17 -13 16 -36 -2 -41 -2 -40 -16 -31 -7 4 -25 9 -42 11 -16 2 -35 8
-43 14 -10 9 -18 8 -32 -5 -17 -16 -19 -16 -25 -1 -3 9 -4 21 0 26 3 5 0 9 -5
9 -6 0 -11 10 -11 23 0 13 -9 33 -20 45 -25 27 -42 70 -34 84 4 6 -1 17 -10
24 -10 7 -19 24 -20 38 0 14 -4 26 -8 26 -5 0 -7 3 -6 8 1 4 -3 17 -10 28 -6
12 -9 24 -6 27 6 6 -14 49 -28 58 -5 3 -11 17 -13 31 -3 14 -11 41 -18 59 -7
19 -12 45 -11 59 1 14 -2 27 -7 30 -4 3 -10 21 -12 40 -3 19 -10 48 -16 63 -6
16 -7 26 -2 22 5 -3 13 0 16 6 4 5 14 8 22 5 8 -4 26 -9 39 -12z m464 -918 c0
-3 -4 -8 -10 -11 -5 -3 -10 -1 -10 4 0 6 5 11 10 11 6 0 10 -2 10 -4z m490
-220 c0 -2 -7 -7 -16 -10 -8 -3 -12 -2 -9 4 6 10 25 14 25 6z m15 -36 c-3 -5
-12 -7 -20 -3 -21 7 -19 13 6 13 11 0 18 -4 14 -10z"/>
<path d="M2595 8269 c-111 -12 -174 -31 -280 -85 -54 -27 -80 -43 -171 -105
-13 -8 -35 -28 -49 -43 l-26 -28 23 -26 c13 -15 58 -62 100 -107 82 -86 178
-187 296 -311 39 -42 72 -79 72 -82 0 -2 10 -14 23 -26 13 -11 48 -52 78 -91
29 -38 57 -74 62 -80 4 -5 30 -41 57 -80 l50 -69 0 40 c0 22 -7 93 -14 159 -8
66 -18 156 -21 200 -4 44 -10 107 -15 140 -5 33 -12 107 -15 165 -9 123 -18
155 -42 145 -45 -17 -593 -28 -609 -12 -23 22 29 28 272 32 142 3 283 7 312
11 l53 6 -6 61 c-3 34 -7 91 -10 127 l-3 65 -34 0 c-18 1 -64 -2 -103 -6z"/>
<path d="M2011 7951 c-13 -16 -36 -44 -51 -61 -61 -68 -200 -300 -200 -333 0
-7 -5 -18 -12 -25 -12 -12 -29 -54 -54 -132 -8 -25 -18 -54 -23 -65 -31 -66
-77 -334 -87 -503 l-5 -93 113 5 c97 5 237 14 458 31 224 16 568 37 666 39 56
1 53 -8 40 126 -8 93 -22 138 -52 170 -25 27 -54 67 -107 145 -19 28 -60 80
-93 116 -32 36 -86 96 -119 133 -58 66 -199 215 -357 379 -43 44 -78 84 -78
88 0 18 -17 8 -39 -20z m-40 -152 c16 -11 37 -19 47 -17 11 2 27 -4 37 -12 12
-10 46 -16 97 -19 58 -2 78 -7 78 -17 0 -9 -11 -14 -27 -14 l-27 0 34 -35 c18
-19 31 -38 27 -42 -4 -3 -28 3 -55 15 -26 12 -63 23 -82 25 -41 2 -40 24 -12
-243 17 -169 18 -240 2 -240 -12 0 -17 25 -25 110 -3 36 -8 76 -10 90 -2 14
-9 61 -15 105 -16 115 -17 116 -51 62 -16 -26 -29 -49 -29 -51 0 -3 -18 -31
-39 -63 -41 -62 -68 -90 -77 -80 -7 7 92 196 143 273 18 28 33 58 33 66 0 8
-22 25 -49 38 -49 22 -67 42 -55 61 8 14 23 11 55 -12z m221 -637 c-2 -28 -1
-52 2 -52 2 0 21 10 41 21 20 12 38 19 42 16 3 -3 -12 -28 -33 -56 -53 -67
-77 -66 -93 5 -11 46 -8 92 6 117 3 4 12 7 21 5 14 -3 16 -13 14 -56z m-319
16 c2 -7 1 -20 -3 -28 -4 -8 -13 -41 -20 -72 -11 -50 -11 -63 5 -104 l17 -46
18 39 c9 21 20 55 24 75 7 38 24 52 47 37 8 -5 38 -6 67 -3 28 3 52 3 52 0 0
-12 -68 -36 -99 -36 -27 0 -31 -4 -41 -42 -28 -112 -34 -123 -59 -123 -20 0
-31 11 -54 55 -26 49 -28 62 -24 121 3 36 13 82 23 102 18 37 38 48 47 25z"/>
<path d="M2180 7071 c0 -5 5 -13 10 -16 6 -3 10 -2 10 4 0 5 -4 13 -10 16 -5
3 -10 2 -10 -4z"/>
<path d="M1875 6899 c-10 -15 3 -25 16 -12 7 7 7 13 1 17 -6 3 -14 1 -17 -5z"/>
<path d="M2895 6935 c3 -22 9 -59 12 -83 l6 -43 43 2 c24 2 44 5 44 7 0 7 -66
103 -90 132 l-22 25 7 -40z"/>
<path d="M2956 6793 l-38 -4 6 -87 c4 -48 7 -100 8 -117 0 -16 4 -57 9 -90 4
-33 11 -96 14 -140 13 -167 18 -190 43 -193 47 -7 119 27 166 79 49 54 56 58
56 32 -1 -61 -118 -152 -196 -153 -46 0 -56 -15 -43 -60 4 -14 8 -52 8 -85 2
-86 5 -89 92 -81 41 3 103 11 139 16 36 5 125 13 198 16 l133 7 -5 46 c-2 25
-5 69 -5 97 -1 55 0 53 -143 206 -16 16 -28 34 -28 39 0 5 -7 12 -15 15 -8 4
-15 10 -15 16 0 5 -13 26 -30 46 -92 114 -160 202 -160 207 0 8 -63 89 -72 93
-5 2 -8 8 -8 13 0 20 -57 91 -70 87 -3 -1 -22 -3 -44 -5z"/>
<path d="M2620 6773 c-80 -6 -192 -14 -250 -18 -58 -3 -154 -10 -215 -16 -60
-5 -133 -11 -161 -14 -28 -2 -71 -6 -95 -9 -24 -2 -104 -8 -177 -12 l-133 -7
5 -76 c6 -91 17 -148 50 -261 24 -84 91 -227 121 -256 8 -9 15 -19 15 -23 0
-19 181 -192 253 -242 99 -69 127 -86 155 -99 12 -5 50 -23 83 -40 34 -16 65
-30 70 -30 5 0 32 -11 61 -25 28 -14 56 -25 61 -25 5 0 8 17 6 38 -3 56 -1 62
21 62 17 0 20 -7 20 -40 0 -45 21 -55 41 -18 10 18 8 24 -12 39 l-24 19 31 0
c46 0 58 -19 43 -69 -7 -23 -16 -41 -21 -41 -4 0 -8 -4 -8 -9 0 -9 102 -37
165 -46 63 -9 233 -20 250 -17 16 4 17 11 10 80 -5 43 -9 102 -10 132 -1 30
-3 63 -4 73 0 10 -13 22 -28 28 l-28 11 23 19 c22 17 23 23 17 91 -3 40 -7 96
-10 123 -5 81 -35 387 -40 425 -3 19 -7 46 -9 60 -8 46 -20 185 -18 197 3 14
-44 14 -258 -4z"/>
<path d="M3579 5979 c-1 -119 -12 -168 -24 -106 -7 34 -10 38 -34 33 -14 -3
-48 -8 -76 -11 -27 -4 -63 -8 -80 -10 -201 -25 -287 -35 -320 -37 l-40 -3 1
-55 c0 -30 3 -95 7 -145 3 -49 6 -93 7 -97 1 -31 291 30 385 82 123 67 201
134 257 221 64 101 65 88 -12 164 l-70 67 -1 -103z"/>
<path d="M2984 4837 c-8 -21 2 -35 16 -21 5 5 6 15 0 24 -8 12 -10 12 -16 -3z"/>
<path d="M2180 8630 c0 -5 5 -10 10 -10 6 0 10 5 10 10 0 6 -4 10 -10 10 -5 0
-10 -4 -10 -10z"/>
<path d="M7770 7889 c-59 -24 -78 -72 -42 -106 37 -35 60 -51 66 -46 3 4 14
-1 24 -11 22 -19 183 -29 223 -13 13 5 32 11 42 12 11 1 22 7 27 14 4 7 9 12
11 10 11 -6 49 14 49 27 0 8 3 13 8 12 4 -1 19 6 35 16 32 21 35 55 8 80 -21
19 -48 16 -123 -15 -26 -11 -59 -17 -73 -15 -13 3 -27 0 -31 -5 -3 -6 -13 -7
-23 -4 -9 4 -36 9 -61 12 -25 3 -56 14 -69 24 -26 21 -35 22 -71 8z"/>
<path d="M7525 7820 c3 -5 8 -10 11 -10 2 0 4 5 4 10 0 6 -5 10 -11 10 -5 0
-7 -4 -4 -10z"/>
<path d="M6337 7752 c-15 -9 -30 -25 -33 -35 -10 -32 6 -74 34 -88 15 -8 29
-17 32 -20 3 -3 28 -16 55 -29 42 -21 65 -25 147 -25 61 0 101 4 109 12 6 6
18 9 25 6 8 -3 17 2 20 11 3 9 10 13 15 10 5 -3 14 0 21 6 51 43 74 60 80 60
4 0 14 13 23 30 12 24 13 33 3 49 -16 26 -40 31 -62 15 -10 -7 -24 -10 -32 -7
-8 3 -14 1 -14 -3 0 -9 -34 -26 -80 -40 -30 -9 -130 -12 -130 -5 0 3 -18 7
-39 7 -29 1 -46 9 -65 29 -14 15 -26 24 -26 19 0 -4 -5 -3 -12 4 -16 16 -38
15 -71 -6z"/>
<path d="M7360 7098 c0 -6 -3 -8 -7 -5 -3 4 -12 2 -19 -3 -6 -6 -16 -10 -20
-9 -22 4 -34 -2 -34 -17 0 -8 -5 -12 -11 -9 -6 4 -13 -3 -16 -15 -4 -15 -8
-18 -13 -10 -5 9 -14 4 -26 -16 -11 -16 -31 -40 -46 -52 -16 -13 -28 -32 -28
-43 0 -10 -5 -19 -10 -19 -6 0 -10 -6 -9 -12 3 -15 -20 -67 -37 -85 -6 -6 -10
-27 -10 -46 1 -24 -2 -33 -11 -30 -8 3 -12 -5 -12 -24 1 -46 -6 -107 -13 -119
-4 -5 -4 -26 0 -45 8 -40 8 -64 -3 -102 -4 -17 -3 -33 5 -42 6 -8 9 -19 5 -25
-4 -6 -1 -17 5 -25 6 -8 9 -23 5 -35 -3 -11 -2 -20 3 -20 5 0 9 -13 9 -30 0
-16 8 -39 18 -49 9 -11 15 -27 11 -36 -3 -9 1 -18 9 -21 8 -4 15 -14 15 -23 0
-9 8 -23 18 -32 9 -8 24 -25 32 -37 11 -17 28 -25 59 -28 24 -3 54 -12 68 -21
19 -13 23 -13 21 -2 -2 9 4 13 20 11 13 -2 25 3 28 12 3 9 12 16 20 16 8 0 14
7 14 16 0 21 39 56 53 47 6 -3 8 6 5 25 -3 24 -1 29 11 24 14 -5 14 -3 2 11
-12 15 -11 17 4 17 13 0 15 3 6 13 -8 10 -7 19 4 33 7 10 12 28 9 39 -3 12 0
34 7 50 16 39 20 73 9 80 -5 3 -5 17 1 32 7 20 6 30 -7 44 -15 17 -15 19 -2
19 17 0 18 22 3 93 -5 26 -4 37 5 37 7 0 9 8 4 23 -4 12 -8 45 -10 72 -1 28
-5 60 -8 73 -3 12 0 22 6 22 6 0 4 8 -5 18 -12 13 -13 21 -5 36 8 15 8 21 0
24 -6 2 -8 10 -5 18 3 8 1 14 -4 14 -5 0 -10 7 -10 16 0 9 21 25 52 39 29 12
56 28 59 34 27 42 -56 90 -156 90 -43 0 -68 -4 -68 -11z"/>
<path d="M6300 6139 c0 -5 5 -7 10 -4 6 3 10 8 10 11 0 2 -4 4 -10 4 -5 0 -10
-5 -10 -11z"/>
<path d="M7930 6109 c0 -5 5 -7 10 -4 6 3 10 8 10 11 0 2 -4 4 -10 4 -5 0 -10
-5 -10 -11z"/>
<path d="M866 7098 c-19 -74 2 -148 55 -193 41 -34 56 -32 63 10 7 33 46 75
71 75 7 0 18 7 25 15 18 21 -7 47 -83 85 -74 37 -122 40 -131 8z"/>
<path d="M3935 6120 c-3 -5 -2 -10 4 -10 5 0 13 5 16 10 3 6 2 10 -4 10 -5 0
-13 -4 -16 -10z"/>
<path d="M5345 5030 c-9 -15 -1 -23 21 -18 15 3 16 4 1 16 -11 9 -17 10 -22 2z"/>
<path d="M695 5934 c-68 -16 -115 -34 -115 -43 0 -22 65 -161 75 -161 36 0
125 139 125 196 0 27 -3 28 -85 8z"/>
<path d="M1206 5682 c-13 -22 -23 -127 -14 -165 9 -42 39 -91 73 -119 24 -20
145 -82 149 -77 5 6 -29 254 -40 290 -3 10 -32 26 -72 39 -37 12 -72 27 -79
32 -6 5 -14 5 -17 0z"/>
<path d="M991 8443 c-38 -53 -42 -62 -35 -98 21 -125 9 -234 -36 -324 -36 -70
-107 -146 -153 -164 -16 -6 -14 -11 14 -42 33 -36 44 -36 51 0 4 21 30 24 74
10 18 -5 32 3 70 42 58 58 104 147 120 228 12 62 9 245 -5 290 -16 51 -44 115
-52 115 -3 0 -24 -26 -48 -57z"/>
<path d="M899 8313 c-43 -49 -289 -439 -289 -458 0 -17 103 16 155 50 50 32
104 95 130 154 29 61 42 173 28 234 -8 37 -9 38 -24 20z"/>
<path d="M660 7820 c-8 -5 -29 -10 -45 -10 -23 0 -35 -7 -48 -30 -10 -17 -15
-35 -12 -40 9 -14 168 -13 200 2 l26 12 -38 38 c-38 39 -56 45 -83 28z"/>
<path d="M840 7823 c1 -18 18 -35 24 -24 4 6 4 16 1 21 -7 12 -25 13 -25 3z"/>
<path d="M456 7005 c4 -8 10 -12 15 -9 14 8 10 24 -6 24 -9 0 -12 -6 -9 -15z"/>
<path d="M330 6870 c0 -5 5 -10 11 -10 5 0 7 5 4 10 -3 6 -8 10 -11 10 -2 0
-4 -4 -4 -10z"/>
</g>
</svg>
